<?xml version="1.0" encoding="UTF-8" standalone="no"?>
<svg
   xmlns:dc="http://purl.org/dc/elements/1.1/"
   xmlns:cc="http://creativecommons.org/ns#"
   xmlns:rdf="http://www.w3.org/1999/02/22-rdf-syntax-ns#"
   xmlns:svg="http://www.w3.org/2000/svg"
   xmlns="http://www.w3.org/2000/svg"
   viewBox="0 0 792 612"
   id="svg2"
   height="612"
   width="792"
   version="1.1">
  <metadata
     id="metadata48">
    <rdf:RDF>
      <cc:Work
         rdf:about="">
        <dc:format>image/svg+xml</dc:format>
        <dc:type
           rdf:resource="http://purl.org/dc/dcmitype/StillImage" />
      </cc:Work>
    </rdf:RDF>
  </metadata>
  <defs
     id="defs46" />
  <g
     id="g4">
    <path
       id="path6"
       style="fill:#000000;fill-rule:evenodd"
       d="m 311.0083,170.8327 18.9164,0 c 11.9407,0 21.7103,9.7696 21.7103,21.7103 l 0,20.8469 c -7.4145,1.1721 -14.9411,2.6613 -22.6952,4.7963 l 0,-27.8552 c 0,-3.9541 -3.235,-7.1891 -7.189,-7.1891 l -1.4556,0 c -3.954,0 -7.189,3.235 -7.189,7.1891 l 0,80.7808 c 0,3.9541 3.235,7.1891 7.189,7.1891 l 1.4556,0 c 3.954,0 7.189,-3.235 7.189,-7.1891 l 0,-26.2296 22.6952,-5.8663 0,30.021 c 0,11.9408 -9.7696,21.7103 -21.7103,21.7103 l -18.9164,0 c -11.9407,0 -21.7103,-9.7695 -21.7103,-21.7103 l 0,-76.4939 c 0,-11.9407 9.7696,-21.7103 21.7103,-21.7103 z" />
    <path
       id="path8"
       style="fill:#000000;fill-rule:evenodd"
       d="m 710.0081,191.8476 17.0744,0 c 10.7776,0 19.5955,8.8179 19.5955,19.5956 l 0,58.3711 c 0,10.7776 -8.8179,19.5956 -19.5955,19.5956 l -17.0744,0 c -10.7776,0 -19.5955,-8.818 -19.5955,-19.5956 l 0,-58.3711 c 0,-10.7777 8.8179,-19.5956 19.5955,-19.5956 z m 8.3826,10.0147 1.3135,0 c 3.5691,0 6.4892,2.9201 6.4892,6.489 l 0,64.4432 c 0,3.5694 -2.9201,6.489 -6.4892,6.489 l -1.3135,0 c -3.5691,0 -6.4889,-2.9196 -6.4889,-6.489 l 0,-64.4432 c 0,-3.5689 2.9198,-6.489 6.4889,-6.489 z" />
    <path
       id="path10"
       style="fill:#000000;fill-rule:evenodd"
       d="m 358.5902,193.8901 30.1479,0 0,76.5877 c 0,4.0274 3.2949,7.3222 7.3222,7.3222 l 8.0812,0 0,-73.6541 c -0.2301,-4.648 -2.2105,-7.9827 -5.6074,-10.2558 l 28.0684,0 0,88.5942 c -0.0401,2.8625 1.2716,5.2082 4.2218,6.9271 l -45.9136,0 c -10.0859,0 -18.3384,-8.2522 -18.3384,-18.3385 l 0,-66.8268 c -0.5054,-4.6145 -4.0241,-7.8306 -7.9821,-10.356 z" />
    <path
       id="path12"
       style="fill:#000000;fill-rule:evenodd"
       d="m 435.3464,193.7562 30.873,0 0,89.5993 c 0.5006,1.7423 2.9839,4.2914 6.003,6.0559 l -34.1053,0 c 3.3487,-1.9353 5.4917,-3.9444 5.9372,-6.0559 l 0,-79.1775 c -0.5074,-4.3357 -3.8017,-7.6687 -8.7079,-10.4218 z" />
    <path
       id="path14"
       style="fill:#000000;fill-rule:evenodd"
       d="m 493.5248,193.8901 21.0004,0 0,-8.1141 c -0.9756,-6.0092 -4.8623,-10.6948 -9.7114,-14.9433 14.2347,2.4591 24.5109,11.3174 39.7353,11.7315 -4.2493,3.2719 -7.7798,6.8403 -8.6823,11.3451 l 0,89.427 c 0.4947,2.0976 5.0134,4.0627 7.5202,6.0942 l -44.5618,-0.0191 c -9.2876,-0.004 -16.8873,-7.5993 -16.8873,-16.8874 l 0,-67.047 c 0,-6.373 5.2139,-11.5869 11.5869,-11.5869 z m 15.7068,11.9831 5.2936,0 0,71.3115 -5.2936,0 c -2.9117,0 -5.2937,-2.3821 -5.2937,-5.2937 l 0,-60.7241 c 0,-2.9116 2.382,-5.2937 5.2937,-5.2937 z" />
    <path
       id="path16"
       style="fill:#000000;fill-rule:evenodd"
       d="m 451.5272,170.8326 c 6.8131,0 12.336,3.7683 12.336,8.4168 0,4.6486 -5.5229,8.4169 -12.336,8.4169 -6.8128,0 -12.3357,-3.7683 -12.3357,-8.4169 0,-4.6485 5.5229,-8.4168 12.3357,-8.4168 z" />
    <path
       id="path18"
       style="fill:#000000;fill-rule:evenodd"
       d="m 572.3132,250.3357 c 3.6197,-3.6401 7.7261,-6.1448 12.4015,-7.3224 l 0,34.0392 -8.1799,0 c -2.3217,0 -4.2216,-1.8996 -4.2216,-4.2216 l 0,-22.4952 z m -1.5837,-58.4484 15.1727,0 c 10.921,0 19.8563,8.9353 19.8563,19.8563 l 0,71.4723 c 0.3661,2.3927 3.6467,4.2861 6.4648,6.1955 l -49.0137,0 c -6.3493,0 -11.5445,-5.1953 -11.5445,-11.5446 l 0,-30.7384 c 0.8639,-5.8696 9.6598,-9.892 20.6481,-14.2086 5.1419,-3.0971 12.1599,-4.1557 12.5997,-11.1815 l 0,-11.5443 c 0,-3.3265 -2.7216,-6.0481 -6.0481,-6.0481 l -0.2519,0 c -3.4648,0 -6.2997,2.8348 -6.2997,6.2997 l 0,13.415 c -6.9539,1.8395 -13.8213,5.2356 -20.6481,9.3624 l 0,-22.2713 c 0,-10.4856 8.5788,-19.0644 19.0644,-19.0644 z" />
    <path
       id="path20"
       style="fill:#000000;fill-rule:evenodd"
       d="m 632.8847,193.8901 21.0005,0 0,-8.1141 c -0.9757,-6.0092 -4.8624,-10.6948 -9.7115,-14.9433 14.2347,2.4591 24.5109,11.3174 39.7353,11.7315 -4.2493,3.2719 -7.7797,6.8403 -8.6823,11.3451 l 0,89.427 c 0.4947,2.0976 5.0134,4.0627 7.5202,6.0942 l -44.5618,-0.0191 c -9.2876,-0.004 -16.8873,-7.5993 -16.8873,-16.8874 l 0,-67.047 c 0,-6.373 5.2139,-11.5869 11.5869,-11.5869 z m 15.7068,11.9831 5.2937,0 0,71.3115 -5.2937,0 c -2.9117,0 -5.2937,-2.3821 -5.2937,-5.2937 l 0,-60.7241 c 0,-2.9116 2.382,-5.2937 5.2937,-5.2937 z" />
    <path
       id="path22"
       style="fill:#000000;fill-rule:evenodd"
       d="m 432.3165,309.2717 48.7512,0 c 10.5886,0 19.2517,8.663 19.2517,19.2517 l 0,35.4025 c 0,9.4335 -7.7181,17.1516 -17.1516,17.1516 l -19.6267,0 0,38.1509 c 0.1401,2.2768 2.1686,4.4188 5.3874,6.476 l -35.8423,0 c 4.6168,-1.9286 6.7809,-4.1104 7.1464,-6.4783 l 0,-101.149 c -0.3211,-3.7207 -3.9847,-6.551 -7.9161,-8.8054 z m 31.2246,13.6663 8.3467,0 c 3.1742,0 5.7709,2.5967 5.7709,5.7709 l 0,33.5909 c 0,3.3409 -2.7331,6.0741 -6.0741,6.0741 l -8.0435,0 0,-45.4359 z" />
    <path
       id="path24"
       style="fill:#000000;fill-rule:evenodd"
       d="m 537.904,340.04 0,0 c 3.3762,0 6.1382,2.7615 6.1382,6.1384 l 0,15.048 -12.2766,3.0478 0,-18.0958 c 0,-3.3769 2.7621,-6.1384 6.1384,-6.1384 z m -8.6421,-10.9469 17.2843,0 c 10.5442,0 19.1711,8.6269 19.1711,19.1711 l 0,21.2685 -0.0299,0.007 c -11.2107,0.8811 -22.4909,3.0801 -33.9218,8.1402 l 0,32.7016 c 0,3.3769 2.7621,6.1384 6.1384,6.1384 l 0,0 c 3.3762,0 6.1382,-2.7615 6.1382,-6.1384 l 0,-26.7527 c 6.292,-3.4207 13.8076,-5.0127 21.6751,-5.3288 l 0,29.9959 c 0,10.5442 -8.6269,19.1711 -19.1711,19.1711 l -17.2843,0 c -10.5442,0 -19.1712,-8.6269 -19.1712,-19.1711 l 0,-60.032 c 0,-10.5442 8.627,-19.1711 19.1712,-19.1711 z" />
    <path
       id="path26"
       style="fill:#000000;fill-rule:evenodd"
       d="m 575.0349,330.4354 22.1847,0 3.3876,3.3839 c 5.4977,-4.0852 11.3518,-5.9873 17.7286,-4.6851 l 0.0728,15.7404 c -5.9557,-5.4313 -14.0807,-4.7289 -14.8424,1.1342 l 0,73.2196 c 0.7096,2.4264 2.6848,4.5995 6.1434,6.476 l -34.386,0 c 3.787,-1.8353 5.8474,-3.9758 5.8958,-6.4708 l 0,-81.9629 c -0.2473,-2.675 -2.4185,-4.9299 -6.1845,-6.8353 z" />
    <path
       id="path28"
       style="fill:#000000;fill-rule:evenodd"
       d="m 622.8655,330.4354 22.1848,0 3.3876,3.3839 c 5.4976,-4.0852 11.3518,-5.9873 17.7285,-4.6851 l 0.0729,15.7404 c -5.9557,-5.4313 -14.0807,-4.7289 -14.8424,1.1342 l 0,73.2196 c 0.7096,2.4264 2.6847,4.5995 6.1434,6.476 l -34.386,0 c 3.787,-1.8353 5.8474,-3.9758 5.8958,-6.4708 l 0,-81.9629 c -0.2474,-2.675 -2.4185,-4.9299 -6.1846,-6.8353 z" />
    <path
       id="path30"
       style="fill:#000000;fill-rule:evenodd"
       d="m 691.9233,329.5022 17.0743,0 c 10.7776,0 19.5955,8.8179 19.5955,19.5955 l 0,58.3712 c 0,10.7776 -8.8179,19.5955 -19.5955,19.5955 l -17.0743,0 c -10.7776,0 -19.5955,-8.8179 -19.5955,-19.5955 l 0,-58.3712 c 0,-10.7776 8.8179,-19.5955 19.5955,-19.5955 z m 8.3826,10.0147 1.3134,0 c 3.5691,0 6.4892,2.9201 6.4892,6.4889 l 0,64.4433 c 0,3.5694 -2.9201,6.489 -6.4892,6.489 l -1.3134,0 c -3.5691,0 -6.489,-2.9196 -6.489,-6.489 l 0,-64.4433 c 0,-3.5688 2.9199,-6.4889 6.489,-6.4889 z" />
    <path
       id="path32"
       style="fill:#000000;fill-rule:evenodd"
       d="m 333.6305,313.0234 7.8948,0 c 4.9835,0 9.0608,3.6931 9.0608,8.2069 l 0,7.8805 c -3.0944,0.4431 -6.2357,1.0061 -9.4718,1.8131 l 0,-10.5298 c 0,-1.4947 -1.3502,-2.7176 -3.0004,-2.7176 l -0.6075,0 c -1.6502,0 -3.0004,1.2229 -3.0004,2.7176 l 0,30.5368 c 0,1.4947 1.3502,2.7176 3.0004,2.7176 l 0.6075,0 c 1.6502,0 3.0004,-1.2229 3.0004,-2.7176 l 0,-9.9153 9.4718,-2.2176 0,11.3485 c 0,4.5139 -4.0773,8.207 -9.0608,8.207 l -7.8948,0 c -4.9835,0 -9.0608,-3.6931 -9.0608,-8.207 l 0,-28.9162 c 0,-4.5138 4.0773,-8.2069 9.0608,-8.2069 z" />
    <path
       id="path34"
       style="fill:#000000;fill-rule:evenodd"
       d="m 365.9309,312.4044 7.9889,0 c 5.0427,0 9.1685,4.1258 9.1685,9.1686 l 0,27.3112 c 0,5.0428 -4.1258,9.1686 -9.1685,9.1686 l -7.9889,0 c -5.0427,0 -9.1685,-4.1258 -9.1685,-9.1686 l 0,-27.3112 c 0,-5.0428 4.1258,-9.1686 9.1685,-9.1686 z m 3.9221,4.6858 0.6146,0 c 1.6699,0 3.0362,1.3663 3.0362,3.0361 l 0,30.1523 c 0,1.6701 -1.3663,3.0361 -3.0362,3.0361 l -0.6146,0 c -1.6699,0 -3.0361,-1.366 -3.0361,-3.0361 l 0,-30.1523 c 0,-1.6698 1.3662,-3.0361 3.0361,-3.0361 z" />
    <path
       id="path36"
       style="fill:#000000;fill-rule:evenodd"
       d="m 362.1351,385.349 0,0 c 1.5583,0 2.8333,1.2747 2.8333,2.8334 l 0,6.946 -5.6668,1.4068 0,-8.3528 c 0,-1.5587 1.275,-2.8334 2.8335,-2.8334 z m -3.9891,-5.053 7.9782,0 c 4.867,0 8.8491,3.9821 8.8491,8.8492 l 0,9.8173 -0.0138,0.003 c -5.1747,0.4067 -10.3815,1.4218 -15.6579,3.7574 l 0,15.0947 c 0,1.5587 1.275,2.8334 2.8335,2.8334 l 0,0 c 1.5583,0 2.8333,-1.2747 2.8333,-2.8334 l 0,-12.3487 c 2.9043,-1.579 6.3734,-2.3138 10.0049,-2.4598 l 0,13.8458 c 0,4.8671 -3.9821,8.8492 -8.8491,8.8492 l -7.9782,0 c -4.8671,0 -8.8492,-3.9821 -8.8492,-8.8492 l 0,-27.71 c 0,-4.8671 3.9821,-8.8492 8.8492,-8.8492 z" />
    <path
       id="path38"
       style="fill:#000000;fill-rule:evenodd"
       d="m 377.2903,370.643 c 6.2404,0.6323 11.3676,4.5626 18.1026,4.6177 -1.0372,0.6106 -1.9039,1.3063 -2.3913,2.1916 l 0,45.8276 c 0.1518,0.9178 0.9886,1.7261 2.515,2.4245 l -15.6288,0 c 1.6653,-0.3678 2.4417,-1.2432 2.68,-2.4245 l 0,-46.8997 c -0.4079,-2.3833 -2.5466,-4.1655 -5.2775,-5.7372 z" />
    <path
       id="path40"
       style="fill:#000000;fill-rule:evenodd"
       d="m 386.6996,313.3364 21.6722,0 c 4.7616,0 8.6578,3.8962 8.6578,8.6579 l 0,35.1277 c 0.0192,6.7189 3.3405,10.3835 5.005,13.2293 -11.4615,-0.1147 -10.3094,-9.7125 -17.483,-12.4661 1.4015,-0.7711 2.6416,-1.6084 2.6416,-3.3021 l 0,-33.4966 c 0,-1.9276 -1.5767,-3.5051 -3.5045,-3.5051 l -3.5043,0 0,36.983 c -0.0241,0.8373 0.6702,1.693 1.6902,2.5576 l -14.0206,0 c 1.7979,-0.7704 2.6965,-1.6223 2.68,-2.5576 l 0,-36.3761 c -0.0286,-2.2287 -1.2224,-3.8877 -3.8344,-4.8519 z" />
    <path
       id="path42"
       style="fill:#000000;fill-rule:evenodd"
       d="m 240.4808,441.1675 7.573,0 c 3.328,-2.3685 6.7607,-2.9263 6.3775,-8.6575 -0.2216,-3.3166 -2.8782,-8.5754 -4.1899,-10.8023 -2.6351,-4.4739 -4.7908,-4.1832 -4.7177,-10.3842 0.0496,-4.2266 0.543,-9.0166 0.7746,-13.2642 0.4652,-8.5261 -0.6896,-20.1929 2.7182,-27.5068 3.1921,-6.8508 0.2445,-18.6885 -0.8054,-26.0658 -1.1745,-8.2529 9.8611,-17.8079 -0.1954,-49.859 -1.0794,-3.4394 -3.1064,-8.119 -3.8284,-11.1633 -1.022,-4.3086 -0.9811,-7.3745 -2.4639,-11.5423 -3.9017,-10.9676 -7.7353,-8.325 -7.5059,-21.9359 4.9152,-1.9894 8.9508,-6.2214 12.3296,-9.4372 2.1098,-2.0081 3.5554,-4.2004 5.4772,-5.9709 2.3549,-2.1696 4.7257,-1.8296 6.4336,-4.083 7.145,-9.4265 -7.218,-26.0353 -11.0469,-29.2394 5.4486,-16.7732 -6.8223,-29.8545 -16.7227,-30.0443 -5.0933,-0.0977 -2.5486,1.6112 -7.0387,2.6693 -5.3982,1.2718 -29.9885,-1.1252 -36.2578,-2.41 -7.3167,-1.4997 -10.8282,-0.2486 -16.0717,2.6361 -17.4875,9.6205 0.7454,13.2986 5.9967,17.6384 -7.862,4.5205 -0.5627,8.9789 -0.9484,14.5439 -0.1563,2.2569 -4.5509,10.346 -5.7258,14.6239 -3.7364,13.6053 -0.4777,22.7747 -9.778,31.6021 -3.7763,3.5843 -6.5585,7.5444 -9.7075,11.3997 -5.7071,6.9873 -23.6842,1.7752 -40.5028,19.9151 l -9.1106,-3.4065 c -0.6652,8.0739 8.6337,8.222 -0.0778,16.475 -11.8192,11.1972 -14.4314,21.8599 -20.5803,30.4504 -5.4271,7.582 -9.163,16.4565 -12.1377,25.6566 -2.2955,7.0993 -0.7113,6.3496 -3.8421,8.4621 -14.8493,10.0197 -8.1859,7.2846 -12.5658,25.2281 -1.5201,6.2269 -7.5027,4.8556 -6.9863,30.2462 l 15.4931,-0.6423 c 2.3175,-4.7788 1.8515,-11.2695 1.7714,-17.4159 -0.1077,-8.2888 0.6625,-0.0496 4.5822,-13.9762 3.4269,-12.1753 29.5974,-28.4959 40.4969,-35.1465 5.8113,-3.5459 5.7635,-5.1032 13.4472,-2.9839 6.745,1.8602 9.5781,1.2117 15.4996,-0.7191 -2.0949,15.4176 1.2763,31.2947 3.2537,46.1004 0.7579,5.6764 -0.1232,18.3038 -0.5932,24.4387 -0.5206,6.7983 -2.5234,3.5584 -3.1552,8.9273 -1.564,13.2884 17.0584,10.5186 19.0949,8.7107 3.9633,-3.5179 2.653,-11.3009 1.9637,-17.0558 6.0471,1.2374 5.241,2.9622 10.1934,0.343 1.1728,-9.1956 -4.0224,-10.9875 -5.7375,-16.2977 -1.097,-3.396 -0.5475,-16.9666 0.3022,-20.0288 7.5391,-2.4028 8.0198,-0.46 13.2666,-7.0061 2.873,-3.5843 3.8845,-8.8665 6.3,-13.2357 29.2738,4.8414 44.1646,-30.8645 44.9921,-11.3321 0.6776,16 -5.5316,5.629 2.6361,48.3049 3.4586,18.0714 5.8943,15.4502 1.9076,24.2397 -2.7581,6.0806 1.2895,4.6397 2.9999,10.5694 1.7595,6.0998 2.1205,5.2526 6.4124,8.4317 z" />
  </g>
</svg>
