<svg id="Layer_1" enable-background="new 0 0 256 256" height="512" viewBox="0 0 256 256" width="512" xmlns="http://www.w3.org/2000/svg"><g><path d="m151.599 75.398s3.408 12.659 13.222 13.246c0 0-13.1 4.525-13.321 14.202 0 0-2.579-13.572-12.925-14.059-.001 0 12.05-1.825 13.024-13.389z" fill="#d7e057"/><path d="m151.498 104.346c-.713 0-1.335-.506-1.472-1.217-.024-.124-2.495-12.418-11.523-12.842-.77-.037-1.388-.651-1.428-1.421s.511-1.445 1.273-1.56c.441-.069 10.894-1.817 11.754-12.033.061-.725.634-1.301 1.359-1.367.734-.063 1.393.399 1.583 1.102.032.116 3.259 11.626 11.864 12.141.714.043 1.297.584 1.396 1.292.098.708-.319 1.388-.994 1.622-.121.042-12.118 4.31-12.313 12.819-.018.767-.61 1.396-1.374 1.459-.041.003-.083.005-.125.005zm-7.741-15.73c3.878 1.969 6.23 5.746 7.587 8.876 2.026-4.021 5.941-6.787 8.949-8.427-4.134-1.842-6.783-5.651-8.334-8.722-1.793 4.361-5.271 6.868-8.202 8.273z" fill="#3a312a"/><path d="m129.9 92.379s2.411 8.954 9.352 9.369c0 0-9.266 3.201-9.422 10.045 0 0-1.824-9.6-9.142-9.944-.001 0 8.523-1.291 9.212-9.47z" fill="#d7e057"/><path d="m129.828 113.294c-.713 0-1.337-.507-1.472-1.22-.016-.081-1.704-8.442-7.739-8.725-.771-.037-1.388-.651-1.428-1.421-.04-.771.511-1.445 1.273-1.561.296-.047 7.364-1.243 7.942-8.114.061-.726.635-1.303 1.36-1.368.731-.069 1.392.399 1.582 1.102.021.079 2.228 7.92 7.994 8.265.714.043 1.299.584 1.396 1.293.098.709-.32 1.388-.996 1.622-.081.028-8.282 2.952-8.413 8.662-.018.767-.611 1.397-1.376 1.461-.04.002-.081.004-.123.004zm-4.518-11.528c2.107 1.332 3.523 3.395 4.447 5.28 1.376-2.232 3.515-3.872 5.365-4.972-2.287-1.269-3.884-3.35-4.941-5.224-1.174 2.286-3.016 3.875-4.871 4.916z" fill="#3a312a"/><path d="m129.9 65.721s2.411 8.954 9.352 9.37c0 0-9.266 3.201-9.422 10.045 0 0-1.824-9.6-9.142-9.944-.001 0 8.523-1.292 9.212-9.471z" fill="#d7e057"/><path d="m129.828 86.636c-.713 0-1.337-.507-1.472-1.22-.016-.081-1.704-8.441-7.739-8.725-.771-.037-1.388-.651-1.428-1.421-.04-.771.511-1.445 1.273-1.561.296-.047 7.364-1.243 7.942-8.114.061-.726.635-1.303 1.36-1.368.731-.069 1.392.399 1.582 1.102.021.079 2.228 7.92 7.994 8.265.714.043 1.299.584 1.396 1.293.098.709-.319 1.388-.996 1.622-.081.028-8.282 2.953-8.413 8.662-.018.767-.611 1.397-1.376 1.461-.04.002-.081.004-.123.004zm-4.518-11.528c2.107 1.333 3.523 3.394 4.447 5.28 1.376-2.232 3.515-3.872 5.365-4.973-2.287-1.269-3.884-3.35-4.941-5.224-1.174 2.288-3.016 3.876-4.871 4.917z" fill="#3a312a"/><path d="m201.79 25.729c0-4.992-4.047-9.039-9.039-9.039s-9.039 4.047-9.039 9.039c0 .134.014.263.02.396-1.135-.514-2.391-.807-3.718-.807-4.992 0-9.039 4.047-9.039 9.039s4.047 9.039 9.039 9.039c1.445 0 2.806-.348 4.017-.951 1.544 2.771 4.501 4.649 7.898 4.649 4.992 0 9.039-4.047 9.039-9.039 0-2.176-.769-4.171-2.05-5.731 1.764-1.649 2.872-3.99 2.872-6.595z" fill="#87796f"/><path d="m191.929 48.595c-3.363 0-6.502-1.611-8.475-4.28-1.106.386-2.259.582-3.44.582-5.811 0-10.539-4.728-10.539-10.539s4.728-10.539 10.539-10.539c.788 0 1.566.087 2.327.261.794-5.03 5.16-8.89 10.41-8.89 5.811 0 10.539 4.728 10.539 10.54 0 2.455-.875 4.841-2.436 6.723 1.047 1.67 1.614 3.617 1.614 5.603.001 5.811-4.727 10.539-10.539 10.539zm-7.899-7.649c.528 0 1.038.279 1.311.771 1.333 2.392 3.858 3.878 6.588 3.878 4.157 0 7.54-3.382 7.54-7.54 0-1.739-.607-3.436-1.71-4.779-.502-.611-.442-1.507.135-2.047 1.545-1.446 2.396-3.399 2.396-5.5 0-4.157-3.382-7.54-7.539-7.54s-7.539 3.382-7.539 7.54c0 .05.004.099.008.148l.011.182c.023.521-.226 1.016-.658 1.309-.433.292-.985.338-1.459.124-.987-.447-2.03-.673-3.1-.673-4.157 0-7.539 3.382-7.539 7.539s3.382 7.539 7.539 7.539c1.165 0 2.291-.267 3.349-.793.214-.107.442-.158.667-.158z" fill="#3a312a"/><path d="m198.73 55.881h-24.696c-3.653 0-6.615 2.962-6.615 6.615s2.962 6.615 6.615 6.615h24.696c3.653 0 6.615-2.962 6.615-6.615s-2.961-6.615-6.615-6.615z" fill="#d7e057"/><path d="m198.73 70.611h-24.696c-4.475 0-8.115-3.64-8.115-8.115s3.64-8.115 8.115-8.115h24.696c4.475 0 8.115 3.641 8.115 8.115s-3.64 8.115-8.115 8.115zm-24.695-13.23c-2.82 0-5.115 2.295-5.115 5.115s2.294 5.115 5.115 5.115h24.696c2.82 0 5.115-2.294 5.115-5.115 0-2.82-2.294-5.115-5.115-5.115z" fill="#3a312a"/><path d="m202.302 92.489-3.876-23.378h-24.55l-14.244 88.695h53.5l-8.183-49.357z" fill="#d7e057"/><path d="m213.132 159.306h-53.5c-.439 0-.856-.193-1.142-.527-.285-.335-.409-.777-.339-1.211l14.244-88.695c.117-.728.744-1.262 1.481-1.262h24.55c.734 0 1.36.531 1.48 1.254l3.876 23.379c.135.817-.418 1.59-1.234 1.726-.821.133-1.59-.417-1.726-1.234l-3.669-22.124h-21.999l-13.762 85.695h49.971l-7.895-47.612c-.135-.817.417-1.589 1.235-1.725.816-.134 1.589.418 1.725 1.235l8.184 49.356c.072.435-.051.879-.336 1.216-.285.335-.703.529-1.144.529z" fill="#3a312a"/><path d="m239.437 107.19-.01 132.12h-54.1v-86.368z" fill="#f7e3c7"/><path d="m239.428 240.81h-54.1c-.829 0-1.5-.671-1.5-1.5v-86.368c0-.441.194-.86.532-1.145l54.109-45.752c.446-.377 1.069-.461 1.6-.215.53.246.869.777.869 1.361l-.01 132.12c0 .828-.672 1.499-1.5 1.499zm-52.6-3h51.1l.009-127.387-51.109 43.215z" fill="#3a312a"/><path d="m185.327 107.19-.01 132.12h-54.1v-86.368z" fill="#f7e3c7"/><path d="m185.317 240.81h-54.1c-.829 0-1.5-.671-1.5-1.5v-86.368c0-.441.194-.86.532-1.145l54.11-45.752c.445-.377 1.069-.461 1.6-.215.53.246.869.777.869 1.361l-.01 132.12c-.001.828-.672 1.499-1.501 1.499zm-52.6-3h51.1l.01-127.387-51.11 43.215z" fill="#3a312a"/><path d="m171.352 218.078h-26.159c-1.917 0-3.471-1.554-3.471-3.471v-6.298c0-1.917 1.554-3.471 3.471-3.471h26.159c1.917 0 3.471 1.554 3.471 3.471v6.298c0 1.917-1.554 3.471-3.471 3.471z" fill="#87796f"/><path d="m171.352 219.578h-26.158c-2.741 0-4.971-2.23-4.971-4.971v-6.298c0-2.741 2.23-4.971 4.971-4.971h26.158c2.741 0 4.971 2.23 4.971 4.971v6.298c0 2.741-2.23 4.971-4.971 4.971zm-26.159-13.241c-1.087 0-1.971.884-1.971 1.971v6.298c0 1.087.884 1.971 1.971 1.971h26.158c1.087 0 1.971-.884 1.971-1.971v-6.298c0-1.087-.884-1.971-1.971-1.971z" fill="#3a312a"/><path d="m71.223 208.726v17.546h12.46v-155.985h-12.46v123.56z" fill="#87796f"/><path d="m83.683 227.772h-12.459c-.829 0-1.5-.671-1.5-1.5v-17.546c0-.829.671-1.5 1.5-1.5s1.5.671 1.5 1.5v16.046h9.459v-152.985h-9.459v122.061c0 .829-.671 1.5-1.5 1.5s-1.5-.671-1.5-1.5v-123.561c0-.829.671-1.5 1.5-1.5h12.459c.829 0 1.5.671 1.5 1.5v155.985c0 .829-.672 1.5-1.5 1.5z" fill="#3a312a"/><path d="m60.298 226.273h34.31c6.479 0 11.73 5.252 11.73 11.731v1.304h-57.77v-1.304c0-6.479 5.252-11.731 11.73-11.731z" fill="#87796f"/><path d="m106.338 240.808h-57.77c-.829 0-1.5-.671-1.5-1.5v-1.304c0-7.295 5.935-13.23 13.23-13.23h34.31c7.295 0 13.23 5.935 13.23 13.23v1.304c0 .829-.671 1.5-1.5 1.5zm-56.268-3h54.767c-.104-5.551-4.653-10.035-10.229-10.035h-34.31c-5.575 0-10.124 4.484-10.228 10.035z" fill="#3a312a"/><path d="m123.418 42.203-.767-1.141c-3.734-5.554-9.988-8.885-16.68-8.885h-.005-16.068v-15.312h-24.89v15.312h-16.073c-6.695 0-12.951 3.334-16.685 8.892l-.762 1.135 13.22 13.443 8.057 41.247h49.376l8.055-41.247z" fill="#87796f"/><path d="m102.141 98.394h-49.376c-.718 0-1.334-.508-1.472-1.212l-7.971-40.805-12.903-13.122c-.5-.508-.573-1.297-.176-1.888l.762-1.135c4.019-5.983 10.722-9.555 17.93-9.555h14.573v-13.812c0-.829.671-1.5 1.5-1.5h24.891c.829 0 1.5.671 1.5 1.5v13.812h14.567c7.21 0 13.911 3.569 17.93 9.548l.767 1.141c.398.591.324 1.381-.175 1.889l-12.906 13.122-7.968 40.805c-.138.704-.755 1.212-1.473 1.212zm-48.141-3h46.905l7.818-40.035c.056-.289.196-.554.403-.764l12.364-12.571-.084-.125c-3.461-5.148-9.231-8.222-15.435-8.222h-16.073c-.829 0-1.5-.671-1.5-1.5v-13.812h-21.89v13.812c0 .829-.671 1.5-1.5 1.5h-16.073c-6.207 0-11.979 3.076-15.439 8.228l-.08.119 12.361 12.571c.207.21.347.476.403.764z" fill="#3a312a"/><path d="m123.884 186.19h-92.862c0-37.611 8.661-70.617 21.705-89.3h49.453c13.043 18.683 21.704 51.689 21.704 89.3z" fill="#8ac3da"/><path d="m123.884 187.69h-92.863c-.829 0-1.5-.671-1.5-1.5 0-36.745 8.215-70.449 21.975-90.159.281-.402.74-.641 1.23-.641h49.453c.49 0 .949.239 1.23.641 13.76 19.708 21.975 53.412 21.975 90.159 0 .829-.671 1.5-1.5 1.5zm-91.358-3h89.854c-.216-35.169-8.018-67.258-20.988-86.3h-47.878c-12.971 19.043-20.772 51.131-20.988 86.3z" fill="#3a312a"/><path d="m121.953 28.087c-4.434 0-20.5 4.093-20.5 4.093v18.51h-48v-18.51s-16.066-4.093-20.5-4.093c-9.052 0-16.391 7.338-16.391 16.39s7.338 16.391 16.391 16.391c4.632 0 8.808-1.93 11.789-5.02l5.344 27.342h54.732l5.339-27.351c2.981 3.095 7.16 5.029 11.797 5.029 9.052 0 16.391-7.338 16.391-16.391-.001-9.052-7.34-16.39-16.392-16.39z" fill="#ed6e7a"/><path d="m104.817 84.69h-54.732c-.717 0-1.334-.508-1.472-1.212l-4.839-24.76c-3.096 2.37-6.853 3.651-10.821 3.651-9.865 0-17.891-8.026-17.891-17.891s8.026-17.89 17.891-17.89c4.57 0 20.207 3.971 20.87 4.14.665.169 1.13.767 1.13 1.454v17.01h45v-17.012c0-.686.465-1.284 1.13-1.454.663-.169 16.3-4.14 20.87-4.14 9.865 0 17.891 8.025 17.891 17.89s-8.026 17.891-17.891 17.891c-3.972 0-7.731-1.283-10.829-3.657l-4.834 24.767c-.138.705-.755 1.213-1.473 1.213zm-53.496-3h52.261l5.102-26.138c.107-.549.511-.993 1.048-1.151.535-.16 1.117-.005 1.505.398 2.838 2.947 6.644 4.569 10.716 4.569 8.211 0 14.891-6.68 14.891-14.891 0-8.21-6.68-14.89-14.891-14.89-3.219 0-13.912 2.496-19 3.763v17.34c0 .829-.671 1.5-1.5 1.5h-48c-.829 0-1.5-.671-1.5-1.5v-17.34c-5.088-1.267-15.781-3.763-19-3.763-8.211 0-14.891 6.68-14.891 14.89 0 8.211 6.68 14.891 14.891 14.891 4.068 0 7.872-1.62 10.709-4.562.388-.402.968-.555 1.504-.397.537.158.94.602 1.047 1.151z" fill="#3a312a"/><path d="m225.462 218.078h-26.159c-1.917 0-3.471-1.554-3.471-3.471v-6.298c0-1.917 1.554-3.471 3.471-3.471h26.159c1.917 0 3.471 1.554 3.471 3.471v6.298c0 1.917-1.554 3.471-3.471 3.471z" fill="#87796f"/><path d="m225.462 219.578h-26.159c-2.741 0-4.971-2.23-4.971-4.971v-6.298c0-2.741 2.23-4.971 4.971-4.971h26.159c2.741 0 4.971 2.23 4.971 4.971v6.298c0 2.741-2.23 4.971-4.971 4.971zm-26.159-13.241c-1.087 0-1.971.884-1.971 1.971v6.298c0 1.087.884 1.971 1.971 1.971h26.159c1.087 0 1.971-.884 1.971-1.971v-6.298c0-1.087-.884-1.971-1.971-1.971z" fill="#3a312a"/><path d="m221.937 123.95-.01 79.39h3.53c2.75 0 4.98 2.23 4.98 4.97v6.3c0 2.74-2.23 4.97-4.98 4.97h-3.53v18.23h16l.01-127.39z" fill="#decaad"/></g></svg>