<?xml version="1.0" encoding="utf-8"?>
<!-- Designed by Vexels.com - 2021 All Rights Reserved - https://vexels.com/terms-and-conditions/  -->
<svg version="1.1" id="Layer_1" xmlns="http://www.w3.org/2000/svg" xmlns:xlink="http://www.w3.org/1999/xlink" x="0px" y="0px"
	 viewBox="0 0 1200 1200" enable-background="new 0 0 1200 1200" xml:space="preserve">
<g>
	<path fill="none" d="M789.421,405.42c0-3.699,0.618-7.252,1.741-10.572c-1.711,1.852-3.35,3.822-4.936,5.882
		c-1.073,1.318-2.041,2.772-3.059,4.161c-0.955,1.463-1.964,2.87-2.868,4.387c-2.177,3.499-4.251,7.125-6.224,10.839l3.238,1.58
		l1.895,0.925l1.921,0.812l3.828,1.67l3.87,1.45l1.938,0.724l1.955,0.595c1.305,0.381,2.608,0.822,3.917,1.164
		c1.237,0.335,2.477,0.634,3.718,0.907C793.644,423.909,789.421,415.159,789.421,405.42z"/>
	<path fill="none" d="M504.32,842.873c2.644-4.453,5.429-8.829,8.637-12.859c-6.494,0.86-13.039,1.835-19.648,2.849
		c-2.721,2.194-5.518,4.325-8.38,6.378c-7.02,5.044-14.476,9.702-22.523,13.45c-1.682,0.785-3.396,1.517-5.128,2.215
		c-1.947,33.605-15.749,49.829-33.19,6.883c-0.211,0.001-0.421,0.015-0.632,0.014c-2.759,0.128-5.608-0.013-8.457-0.295
		c1.129,3.093,2.246,6.096,3.529,9.022c0.475,1.309,1.129,2.58,1.681,3.863c0.59,1.271,1.065,2.554,1.733,3.786
		c0.629,1.232,1.206,2.477,1.771,3.709c0.655,1.219,1.322,2.413,1.925,3.632c5.082,9.625,10.921,18.647,17.3,27.438
		c6.417,8.778,13.334,17.338,20.585,25.949c4.517,5.429,9.15,10.819,13.86,16.427c-0.257-6.199-0.218-12.372,0.141-18.519
		c0.744-13.27,2.772-26.348,5.788-39.142c3.067-12.77,7.071-25.295,12.307-37.282C498.237,854.41,501.098,848.533,504.32,842.873z"
		/>
	<path fill="none" d="M640.624,774.868c-6.314-4.325-12.872-7.97-19.648-10.395l-2.554-0.834c-0.847-0.269-1.694-0.59-2.554-0.757
		l-2.592-0.603c-0.86-0.218-1.72-0.424-2.592-0.514l-2.605-0.359l-1.309-0.192c-0.436-0.051-0.873-0.039-1.309-0.064l-2.631-0.116
		l-1.309-0.077h-1.527c-0.501,0-1.052-0.013-1.514,0l-1.322,0.064l-2.631,0.116c-0.436,0.026-0.873,0.026-1.309,0.064l-1.309,0.192
		l-2.605,0.372c-0.873,0.077-1.732,0.295-2.592,0.514l-2.58,0.603c-0.873,0.167-1.72,0.475-2.567,0.757l-2.554,0.834
		c-6.789,2.413-13.334,6.07-19.661,10.382c-12.693,8.637-24.32,19.905-36.255,31.198c-6.366,6.045-12.808,12.205-19.558,18.185
		c0.475-0.231,0.937-0.449,1.411-0.667l6.905-2.849c2.31-0.975,4.658-1.771,7.02-2.592c2.361-0.808,4.723-1.617,7.123-2.348
		c4.787-1.386,9.599-2.772,14.489-3.824c9.741-2.284,19.648-3.773,29.594-4.749c4.967-0.539,9.959-0.757,14.951-1.026
		c2.49-0.128,4.992-0.09,7.482-0.141l1.566-0.013l2.182-0.026l3.747,0.051c4.979,0.077,9.959,0.359,14.938,0.642
		c4.954,0.449,9.92,0.822,14.861,1.476c9.869,1.258,19.674,2.952,29.325,5.249c9.664,2.284,19.199,5.056,28.529,8.419
		c3.696,1.36,7.366,2.772,10.998,4.325c-7.572-6.545-14.707-13.398-21.779-20.097C664.957,794.76,653.317,783.505,640.624,774.868z"
		/>
	<path fill="none" d="M889.047,407.43c-1.053-0.519-2.102-1.044-3.145-1.576c-6.827-3.535-13.439-7.3-20.026-10.86
		c-5.374-2.89-10.736-5.638-16.123-8.02c3.559,5.265,5.637,11.613,5.637,18.447c0,5.825-1.516,11.293-4.165,16.043
		c2.826-1.439,5.667-2.951,8.567-4.466c2.665-1.416,5.401-2.811,8.206-4.119c2.805-1.313,5.691-2.532,8.703-3.483
		c2.972-1.007,6.119-1.645,9.238-1.906C886.977,407.4,888.014,407.397,889.047,407.43z"/>
	<path fill="none" d="M715.046,839.254c-2.669-1.925-5.275-3.901-7.816-5.929c-6.442-0.68-12.834-1.36-19.173-2.002
		c2.785,3.658,5.262,7.572,7.61,11.55c3.234,5.66,6.096,11.537,8.727,17.518c5.223,11.987,9.227,24.499,12.307,37.282
		c3.029,12.782,5.057,25.872,5.788,39.142c0.385,6.327,0.424,12.692,0.128,19.083c4.877-5.826,9.677-11.383,14.348-16.992
		c7.251-8.611,14.168-17.171,20.585-25.949c6.378-8.791,12.205-17.813,17.3-27.438c0.603-1.219,1.271-2.413,1.925-3.632
		c0.565-1.232,1.142-2.477,1.771-3.709c0.655-1.232,1.142-2.515,1.72-3.786c0.565-1.283,1.219-2.554,1.694-3.863
		c1.283-2.926,2.4-5.929,3.529-9.035c-3.003,0.334-6.045,0.475-8.958,0.334c-0.218,0-0.424-0.013-0.642-0.013
		c-17.428,42.902-31.211,26.707-33.175-6.866c-1.732-0.693-3.452-1.438-5.133-2.233
		C729.535,848.956,722.066,844.311,715.046,839.254z"/>
	<path fill="none" d="M1040.517,420.714c-3.799-12.692-7.187-25.449-10.292-38.244c-3.042-12.808-5.826-25.654-8.445-38.513
		c-2.631-12.846-4.966-25.731-7.289-38.603l-3.414-19.289l-3.298-19.263c-2.207-12.808-4.466-25.59-6.969-38.18
		c-0.629-3.144-1.296-6.276-1.989-9.369l-1.129-4.53c-0.372-1.514-0.731-3.029-1.206-4.517c-0.885-2.99-1.707-6.006-2.759-8.958
		l-1.489-4.453l-1.668-4.402c-8.971-23.46-22.241-45.431-38.809-64.476c-8.29-9.535-17.646-18.134-27.874-25.513
		c-5.082-3.734-10.472-7.02-15.978-10.1c-1.386-0.744-2.81-1.411-4.222-2.13c-1.424-0.667-2.798-1.45-4.273-2.015
		c-2.913-1.193-5.801-2.528-8.817-3.452c-1.489-0.5-2.977-1.04-4.492-1.514l-4.581-1.206l-2.297-0.616l-2.323-0.436l-4.671-0.911
		c-1.566-0.282-3.144-0.398-4.723-0.616l-2.374-0.282l-1.181-0.141l-1.193-0.039c-3.17-0.09-6.378-0.398-9.561-0.167l-4.8,0.18
		l-4.787,0.565c-3.208,0.257-6.353,0.963-9.535,1.553c-0.783,0.167-1.591,0.27-2.374,0.488l-2.336,0.642l-0.499,0.135
		c13.835,6.631,26.955,14.719,38.978,24.187c9.992,7.934,19.294,16.747,27.308,26.613c7.992,9.851,14.914,20.593,19.712,32.153
		c-8.357-9.312-17.104-17.796-26.432-25.494c-9.286-7.726-19.132-14.624-29.292-20.888c-20.331-12.526-42.097-22.359-64.689-29.54
		c-22.604-7.166-46.054-11.607-69.94-13.221c-11.947-0.798-23.996-0.832-36.129-0.247c-7.591,0.347-15.206,1.015-22.874,1.834
		c12.95,3.124,25.643,7.037,38.037,11.579c16.645,6.083,32.79,13.206,48.511,21.034c15.708,7.867,31.07,16.325,45.957,25.629
		c-33.277-11.114-65.926-23.177-99.075-32.251c-25.308-6.981-50.885-12.115-76.565-13.963c12.179,22.228,5.621,75.718-3.208,147.663
		c-4.833,39.358-10.396,84.738-13.512,132.573c5.667,0.404,11.276,1.485,16.66,3.33c0.872,0.257,1.722,0.639,2.577,0.964
		c0.853,0.339,1.706,0.662,2.543,1.043c1.679,0.754,3.325,1.595,4.938,2.491c1.601,0.955,3.18,1.916,4.684,3.064
		c1.513,1.095,2.965,2.37,4.281,3.797c-7.611,1.08-14.366,1.355-21.079,1.614c-5.286,0.146-10.446,0.191-15.571,0.194
		c-0.362,6.974-0.663,13.99-0.898,21.038c14.73,0.33,29.411,2.195,43.643,5.828c7.598,1.971,15.089,4.326,22.35,7.316
		c3.629,1.496,7.208,3.115,10.705,4.917c3.492,1.801,6.932,3.741,10.156,6.055c-15.671-1.183-30.635-2.44-45.582-3.318
		c-14.004-0.874-27.879-1.406-41.734-1.574c-0.263,17.921-0.035,35.98,0.837,54.016c110.922,1.044,133.133,63.886,99.633,102.312
		c-28.61,32.817-48.302,52.088-82.786,57.221c-4.479,52.411-32.3,85.56-61.265,111.974c4.055-2.208,8.29-4.171,12.744-5.801
		l3.324-1.104c1.104-0.359,2.195-0.757,3.35-1.001l3.439-0.834c1.142-0.282,2.284-0.552,3.465-0.693l3.504-0.513l1.758-0.244
		c0.59-0.064,1.181-0.077,1.771-0.115l3.542-0.18l1.784-0.077l1.566-0.013c0.526,0,1.001-0.013,1.578,0l1.771,0.09l3.542,0.18
		c0.59,0.039,1.181,0.039,1.771,0.102l1.758,0.257l3.516,0.513c1.181,0.141,2.323,0.411,3.465,0.693l3.426,0.821
		c1.155,0.244,2.246,0.642,3.362,1.014l3.311,1.104c8.74,3.183,16.684,7.7,23.922,12.731c7.238,5.069,13.822,10.665,20.097,16.376
		c6.276,5.724,12.256,11.563,18.095,17.389c11.678,11.653,23.139,23.049,35.562,32.661c6.211,4.787,12.679,9.061,19.468,12.538
		c6.763,3.516,13.873,6.134,21.227,7.623c3.67,0.706,7.392,1.283,11.165,1.45c3.786,0.372,7.366,0.205,11.037-0.218
		c7.277-0.885,14.374-3.259,21.034-6.802c6.661-3.567,12.795-8.354,18.442-13.77c5.672-5.416,10.754-11.576,15.451-18.057
		c9.458-12.988,17.069-27.477,23.755-42.402c3.35-7.456,6.391-15.092,9.202-22.818c2.849-7.713,5.403-15.542,7.674-23.485
		c-2.477,16.35-6.622,32.469-11.897,48.254c-2.631,7.893-5.698,15.67-9.137,23.306c-3.465,7.636-7.289,15.144-11.73,22.382
		c-4.453,7.213-9.471,14.168-15.31,20.585c-5.826,6.404-12.487,12.256-20.11,16.953c-7.61,4.71-16.26,8.111-25.295,9.664
		c-0.026,0-0.051,0.013-0.077,0.013c0.141,0.719,0.231,1.438,0.359,2.169c0.231,1.514,0.462,3.054,0.578,4.594
		c0.102,1.54,0.141,3.08,0.205,4.633c0,6.186-0.667,12.461-2.194,18.506c-2.952,12.179-8.688,23.536-15.901,33.521
		c-7.277,9.972-16.042,18.673-25.885,25.769c-4.928,3.529-10.087,6.725-15.516,9.407c-2.734,1.322-5.48,2.58-8.342,3.645
		c-0.423,0.154-0.847,0.308-1.271,0.462c-0.385,4.453-0.963,8.906-1.771,13.347c-1.193,6.674-2.849,13.321-5.069,19.841
		c-2.233,6.52-5.057,12.898-8.496,18.994c-6.827,12.23-16.504,23.113-28.028,31.403c-11.524,8.355-24.769,13.835-38.154,17.223
		c-6.725,1.732-13.526,2.785-20.303,3.529c-6.776,0.796-13.604,0.975-20.29,1.065c-6.686-0.102-13.514-0.269-20.29-1.065
		c-2.964-0.334-5.942-0.732-8.919-1.207c5.826,4.877,9.137,12.333,9.407,21.484c0.347,11.704-4.543,24.73-11.204,30.582
		c10.292,0.757,20.623,1.13,31.006,1.168c15.067-0.064,30.03-0.783,44.917-2.451c14.861-1.707,29.568-4.453,43.993-8.188
		c14.425-3.722,28.529-8.637,42.145-14.63c3.362-1.578,6.802-3.054,10.113-4.735c3.298-1.733,6.648-3.375,9.895-5.185
		c3.221-1.874,6.52-3.632,9.689-5.595l4.723-2.977c1.579-1.014,3.183-1.964,4.697-3.055c24.846-16.606,46.74-37.743,65.477-61.588
		c18.904-23.781,34.214-50.474,47.985-78.041c-2.451,7.315-5.133,14.553-8.008,21.727l-2.207,5.364l-2.323,5.313
		c-1.527,3.568-3.183,7.058-4.838,10.575c-6.648,14.001-14.348,27.566-22.959,40.605c-2.795,4.202-5.716,8.333-8.735,12.399
		c2.814-1.405,5.593-2.868,8.313-4.434c6.256-3.497,12.275-7.372,18.079-11.512c11.58-8.332,22.336-17.681,32.301-27.789
		c19.929-20.241,36.894-43.184,51.854-67.314c14.997-24.133,27.959-49.535,39.695-75.498c11.685-25.998,22.077-52.618,31.509-79.604
		c2.351-6.751,4.684-13.521,6.844-20.269c2.282-6.734,4.237-13.551,6.271-20.349c3.885-13.634,7.401-27.359,10.219-41.211
		c2.842-13.845,4.953-27.809,6.453-41.839l0.553-5.264l0.406-5.277l0.403-5.279l0.26-5.29l0.272-5.292l0.149-5.301
		c0.135-3.534,0.136-7.074,0.144-10.617c0.013-7.084-0.18-14.186-0.429-21.303l-0.532-10.689l-0.676-10.72
		c-0.959-14.315-2.192-28.722-2.883-43.26c-1.223-22.954-0.423-46.33,3.841-68.902
		C1045.059,435.243,1042.69,427.998,1040.517,420.714z M694.663,331.301c1.31-1.445,2.511-2.99,3.771-4.409
		c2.398-2.995,4.68-5.977,6.742-9.092c4.163-6.186,7.735-12.605,10.941-19.267c6.471-13.28,11.698-27.406,18.233-41.736
		c3.279-7.152,6.893-14.365,11.334-21.344c4.433-6.957,9.751-13.725,16.336-19.362c6.539-5.652,14.456-9.923,22.672-11.983
		c8.224-2.074,16.58-2.183,24.424-0.564c-1.899,0.731-3.768,1.358-5.607,1.984c-0.927,0.266-1.816,0.703-2.71,1.062
		c-0.89,0.383-1.778,0.72-2.655,1.079c-3.481,1.53-6.786,3.203-9.841,5.131c-6.125,3.83-11.289,8.466-15.564,13.928
		c-8.621,10.83-14.533,24.195-20.883,38.068c-6.329,13.853-13.057,28.471-22.822,41.665c-4.893,6.548-10.501,12.723-16.973,17.827
		c-6.466,5.083-13.695,9.171-21.417,11.401C691.977,334.149,693.333,332.719,694.663,331.301z M785.823,785.161
		c-8.393-0.603-16.376-3.273-23.716-6.558c-7.354-3.349-14.143-7.418-20.611-11.704c-6.468-4.312-12.615-8.855-18.609-13.45
		c-11.987-9.214-23.357-18.609-35.164-27.169c-11.832-8.598-23.999-16.26-38.565-21.984c7.777-1.245,15.849-0.552,23.652,1.117
		c7.816,1.694,15.349,4.504,22.536,7.828c14.373,6.738,27.207,15.721,39.258,24.923c12.076,9.202,23.331,18.942,34.971,27.246
		c5.826,4.145,11.781,7.841,18.211,10.498c6.417,2.631,13.462,3.773,21.329,2.913C802.917,783.646,794.191,785.777,785.823,785.161z
		 M817.102,733.341c-4.632,1.844-9.857,2.75-15.016,2.566c-5.164-0.161-10.179-1.292-14.768-2.835
		c-4.604-1.55-8.819-3.502-12.759-5.529c-7.881-4.092-14.747-8.324-21.904-12.174c-3.579-1.936-7.235-3.795-11.122-5.57
		c-3.883-1.827-7.975-3.472-12.399-5.499c8.679-4.201,18.727-4.861,28.226-3.28c9.537,1.594,18.309,5.459,25.985,9.399
		c7.746,3.972,14.397,7.891,21.311,10.551c3.477,1.326,7.118,2.354,11.164,2.997c2.022,0.354,4.13,0.562,6.339,0.754
		c1.092,0.043,2.239,0.19,3.383,0.223c1.151,0.053,2.32,0.093,3.556,0.221C825.837,728.755,821.738,731.454,817.102,733.341z
		 M828.988,682.442c-3.316-22.094-8.364-43.044-15.458-63.249c-7.038-20.186-15.933-39.548-26.459-57.953
		c-10.554-18.384-22.759-35.811-36.858-51.749c-14.098-15.983-30.077-30.299-48.696-42.652c10.949,2.394,21.494,6.784,31.437,12.249
		c9.943,5.498,19.246,12.196,27.859,19.671c17.197,15.02,31.594,33.149,42.95,52.905c11.353,19.769,19.69,41.275,24.361,63.516
		c2.304,11.122,3.7,22.424,3.94,33.727C832.273,660.202,831.462,671.508,828.988,682.442z M864.464,424.195
		c-4.684,3.739-9.554,7.511-14.872,10.936c-5.32,3.396-11.109,6.454-17.379,8.615c-6.243,2.226-12.933,3.471-19.625,3.817
		c-6.699,0.328-13.39-0.283-19.855-1.509c-1.615-0.316-3.186-0.746-4.783-1.119l-2.385-0.589l-2.324-0.714
		c-1.546-0.483-3.108-0.944-4.644-1.453l-4.517-1.691l-2.252-0.869l-2.184-0.971l-4.366-1.953c-2.871-1.359-5.662-2.827-8.486-4.263
		l-7.841-3.986l3.831-8.328c3.299-7.172,6.918-14.302,11.307-21.135c2.18-3.42,4.542-6.776,7.128-10.028
		c2.538-3.278,5.419-6.377,8.529-9.317c3.117-2.93,6.507-5.696,10.256-8.083c3.755-2.367,7.851-4.368,12.177-5.805
		c8.663-2.937,18.141-3.223,26.619-1.508c8.533,1.714,16.217,5.043,23.207,8.972c6.995,3.949,13.379,8.493,19.459,13.232
		c6.093,4.723,11.857,9.693,17.668,14.504c2.903,2.41,5.815,4.795,8.821,7.046c1.502,1.131,3.024,2.236,4.596,3.282
		c1.583,1.019,3.202,1.998,4.897,2.899c-3.79-0.644-7.475-1.96-11.068-3.399c-1.598-0.657-3.17-1.365-4.728-2.097
		c-1.786,0.295-3.526,0.694-5.194,1.337c-2.732,1.019-5.326,2.241-7.786,3.781C873.722,416.76,869.183,420.507,864.464,424.195z
		 M918.499,799.733c-0.398,5.271-1.179,10.55-2.533,15.691c-1.297,5.156-3.044,10.21-5.239,15.063
		c-4.322,9.734-10.348,18.711-17.758,26.293c-3.736,3.766-7.767,7.228-12.177,10.177c-2.223,1.457-4.496,2.825-6.888,4.005
		c-2.383,1.181-4.856,2.24-7.492,2.906c5.205-9.298,9.944-17.682,14.393-26.13c4.44-8.402,8.594-16.668,12.357-25.121
		c3.833-8.424,7.198-17.034,10.55-25.946c0.8-2.239,1.687-4.479,2.469-6.766l1.257-3.436l1.219-3.485
		c0.916-2.328,1.628-4.706,2.582-7.104c0.896-2.403,1.724-4.844,2.864-7.329C918.109,778.519,919.099,789.167,918.499,799.733z
		 M957.663,764.731c-1.986,10.527-4.803,20.834-8.36,30.837c-3.588,9.992-7.787,19.727-13.011,28.953
		c2.576-21.01,5.421-41.347,6.344-61.615c0.993-20.205,0.482-40.249-2.984-59.478l-0.628-3.607l-0.806-3.552
		c-0.276-1.182-0.516-2.377-0.818-3.549c-0.326-1.163-0.668-2.322-0.968-3.493c-0.564-2.361-1.337-4.636-2.083-6.925
		c-0.678-2.323-1.66-4.499-2.455-6.769c-0.391-1.141-0.873-2.232-1.369-3.318l-1.453-3.281c-1.034-2.151-2.142-4.257-3.207-6.406
		c-1.234-2.027-2.381-4.135-3.682-6.133l-1.987-2.981l-1-1.494l-1.1-1.412c-5.726-7.675-12.662-14.556-20.66-20.484
		c-1.971-1.53-4.118-2.801-6.184-4.274c-2.133-1.345-4.352-2.565-6.541-3.927l-6.864-3.588c-2.347-1.112-4.741-2.157-7.132-3.355
		c10.598,0.253,21.278,2.617,31.36,6.954c10.078,4.337,19.463,10.779,27.397,18.768c7.976,7.968,14.368,17.498,19.114,27.642
		c1.157,2.545,2.379,5.087,3.291,7.718c0.984,2.612,1.987,5.223,2.759,7.889c0.424,1.324,0.805,2.661,1.203,3.994
		c0.365,1.338,0.664,2.688,0.997,4.031l0.972,4.038l0.774,4.061C962.529,721.705,961.592,743.708,957.663,764.731z M1008.66,729.6
		c-5.903,29.282-16.157,57.73-31.455,82.998c3.84-14.266,7.393-28.383,10.151-42.589c2.791-14.191,4.921-28.412,6.338-42.673
		c2.904-28.519,2.978-57.151,1.499-85.868c-1.468-28.722-4.486-57.544-7.214-86.624c-1.333-14.543-2.611-29.149-3.458-43.827
		c-0.813-14.677-1.335-29.418-0.748-44.179c3.565,14.331,6.825,28.592,10.069,42.873c3.213,14.282,6.27,28.595,9.069,43.001
		c5.539,28.801,9.957,58.061,11.5,87.764C1015.981,670.134,1014.55,700.27,1008.66,729.6z"/>
	<path d="M350.236,386.973c-5.387,2.382-10.749,5.13-16.123,8.02c-6.587,3.56-13.199,7.325-20.026,10.86
		c-1.043,0.532-2.092,1.057-3.145,1.576c1.033-0.032,2.07-0.029,3.11,0.06c3.119,0.261,6.267,0.9,9.238,1.906
		c3.012,0.951,5.897,2.169,8.703,3.483c2.805,1.308,5.54,2.704,8.206,4.119c2.899,1.515,5.741,3.027,8.567,4.466
		c-2.65-4.75-4.165-10.218-4.165-16.043C344.6,398.587,346.678,392.239,350.236,386.973z"/>
	<path d="M399.634,429.947c1.242-0.273,2.482-0.573,3.719-0.907c1.309-0.342,2.612-0.783,3.917-1.164l1.955-0.595l1.938-0.724
		l3.87-1.45l3.828-1.67l1.921-0.812l1.895-0.925l3.238-1.58c-1.973-3.715-4.047-7.34-6.224-10.839
		c-0.905-1.518-1.913-2.924-2.868-4.387c-1.019-1.389-1.986-2.843-3.059-4.161c-1.586-2.06-3.225-4.031-4.936-5.882
		c1.123,3.32,1.741,6.873,1.741,10.572C410.568,415.159,406.345,423.909,399.634,429.947z"/>
	<path d="M787.787,775.908c-6.43-2.657-12.385-6.353-18.211-10.498c-11.64-8.304-22.895-18.044-34.971-27.246
		c-12.051-9.202-24.884-18.185-39.258-24.923c-7.187-3.324-14.72-6.134-22.536-7.828c-7.803-1.668-15.875-2.362-23.652-1.117
		c14.566,5.724,26.732,13.386,38.565,21.984c11.807,8.56,23.177,17.954,35.164,27.169c5.993,4.594,12.141,9.137,18.609,13.45
		c6.468,4.286,13.257,8.355,20.611,11.704c7.341,3.285,15.323,5.955,23.716,6.558c8.367,0.616,17.094-1.514,23.293-6.34
		C801.249,779.681,794.203,778.539,787.787,775.908z"/>
	<path fill="#C69C6D" d="M636.069,1045.9c5.801-1.36,11.448-3.145,16.863-5.403c5.416-2.246,10.511-5.082,15.323-8.303
		c9.625-6.481,17.659-15.079,23.896-25.077c6.199-10.023,10.562-21.381,13.36-33.264c2.798-11.884,4.107-24.294,4.338-36.781
		c0.193-12.5-0.667-25.115-2.438-37.641c-1.758-12.526-4.44-24.987-8.034-37.217c-1.809-6.109-3.889-12.141-6.314-18.057
		c-1.784-4.427-3.786-8.752-6.096-12.949c-10.138-1.027-20.174-2.002-30.223-2.836c-9.561-0.783-19.083-1.502-28.593-2.015
		c-4.761-0.282-9.51-0.501-14.258-0.68c-3.298-0.116-6.597-0.244-9.895-0.308c0.193,0.411,0.385,0.821,0.578,1.245
		c2.733,6.404,4.979,13.052,6.622,19.828c3.298,13.552,4.53,27.515,4.209,41.337c-0.321,13.822-2.195,27.554-5.608,40.875
		c-1.745,6.648-3.812,13.219-6.353,19.622c-1.296,3.196-2.656,6.365-4.197,9.471c-1.54,3.106-3.183,6.186-5.146,9.099
		c-0.295-13.937,0.257-27.207,0.693-40.413c0.501-13.167,1.065-26.168,1.373-39.117c0.334-12.962,0.385-25.834,0.064-38.834
		c-0.09-6.507-0.488-13.001-0.809-19.635c-0.064-1.219-0.128-2.439-0.218-3.658l-2.669-0.013c-2.361,0-4.735-0.038-7.11-0.013
		l-7.11,0.051c-2.374,0.013-4.736,0.154-7.11,0.18l-3.555,0.064l-3.542,0.167c-2.374,0.141-4.748,0.154-7.123,0.295
		c-4.723,0.334-9.484,0.501-14.22,0.95c-9.664,0.667-19.302,1.733-29.004,3.029c-2.631,4.607-4.864,9.368-6.84,14.245
		c-2.425,5.916-4.517,11.961-6.327,18.07c-3.593,12.23-6.276,24.692-8.034,37.217c-1.784,12.526-2.644,25.141-2.451,37.641
		c0.231,12.487,1.527,24.897,4.338,36.794c2.798,11.884,7.174,23.242,13.372,33.264c6.224,9.997,14.284,18.596,23.896,25.077
		c4.813,3.221,9.92,6.045,15.336,8.303c5.403,2.259,11.063,4.042,16.863,5.403c11.614,2.798,23.755,3.812,36.075,3.799
		C612.327,1049.711,624.467,1048.71,636.069,1045.9z"/>
	<path fill="#C69C6D" d="M187.691,205.496c1.065-3.234,2.053-6.481,3.311-9.625l1.784-4.761l1.976-4.672
		c3.786-8.829,8.098-17.415,12.962-25.667c-4.825,0.334-9.548,1.206-14.143,2.4c-7.277,1.912-14.258,4.697-20.919,8.072
		c-6.673,3.337-13.064,7.174-19.186,11.409c-6.07,4.299-11.922,8.881-17.467,13.809c-10.998,9.933-20.996,20.919-29.414,32.956
		c-8.534,11.948-15.516,24.897-20.752,38.45c-0.719,1.668-1.258,3.401-1.861,5.12c-0.577,1.72-1.232,3.414-1.745,5.147l-1.476,5.236
		c-0.231,0.873-0.513,1.733-0.706,2.618l-0.59,2.657l-1.219,5.3l-0.898,5.351l-0.449,2.682c-0.141,0.898-0.193,1.797-0.295,2.695
		c-0.18,1.809-0.385,3.606-0.603,5.416c-0.218,1.797-0.205,3.606-0.334,5.429c-0.051,1.809-0.244,3.619-0.205,5.441
		c0.026,1.809,0.064,3.632,0.064,5.454l0.013,2.734l0.154,2.836c0.359,7.585,0.847,15.156,1.489,22.728
		c1.309,15.143,3.337,30.223,5.737,45.469c0.796,5.403,1.668,10.819,2.387,16.311c1.784-8.278,3.593-16.581,5.313-24.897
		l5.967-28.734c2.079-9.587,4.197-19.148,6.391-28.696l3.491-14.284c1.219-4.748,2.451-9.484,3.722-14.22
		c-0.68,4.864-1.386,9.702-2.118,14.54l-2.002,14.528c-1.322,9.689-2.58,19.392-3.786,29.094l-3.773,29.106l-1.976,14.579
		l-1.014,7.289l-1.129,7.277c-3.029,19.391-6.494,38.796-10.78,58.033l-1.617,7.225l-1.758,7.187
		c-1.168,4.787-2.31,9.587-3.619,14.335c-1.309,4.761-2.515,9.548-3.914,14.271l-0.539,1.861c1.591-0.488,3.157-1.052,4.697-1.72
		c5.095-2.156,9.818-5.364,14.168-9.176c8.714-7.687,15.952-17.685,22.087-28.4c6.147-10.755,11.293-22.318,15.888-34.124
		c4.569-11.845,8.509-24.011,12.166-36.293c3.645-12.307,6.866-24.769,9.882-37.307c3.042-12.538,5.839-25.166,8.47-37.846
		c2.605-12.692,5.185-25.398,7.623-38.167l7.354-38.385c2.503-12.834,4.992-25.68,7.995-38.578c0.757-3.221,1.54-6.455,2.374-9.689
		l1.373-4.915C186.703,208.743,187.139,207.1,187.691,205.496z"/>
	<path d="M1146.535,532.456l-4.594-13.796c-1.553-4.594-2.913-9.24-4.376-13.86c-1.502-4.62-2.836-9.279-4.209-13.924l-2.041-6.981
		l-1.925-7.02c-4.312-15.541-8.226-31.198-11.768-46.997c0.487-1.835,1.026-3.683,1.527-5.506
		c2.233-7.302,4.787-14.617,7.135-22.035c4.774-14.822,8.701-30.107,11.524-45.61c0.744-3.863,1.271-7.764,1.912-11.653
		c0.616-3.901,0.988-7.816,1.501-11.73l0.359-2.939l0.231-3.055l0.398-6.122c0.141-2.041,0.051-4.094,0.077-6.147
		c-0.038-2.041,0.064-4.107-0.077-6.147l-0.424-6.147c-0.09-1.014-0.115-2.053-0.257-3.067l-0.411-3.054l-0.834-6.096l-1.206-6.045
		l-0.616-3.016c-0.218-1.001-0.526-1.989-0.783-2.977l-1.617-5.942c-0.552-1.976-1.271-3.901-1.899-5.852
		c-0.667-1.925-1.245-3.901-2.066-5.788l-2.323-5.685c-0.745-1.9-1.707-3.709-2.554-5.57c-1.681-3.722-3.658-7.302-5.621-10.87
		c-4.132-7.033-8.521-13.912-13.578-20.264c-2.438-3.26-5.121-6.288-7.751-9.369c-1.322-1.54-2.747-2.977-4.133-4.453
		c-1.412-1.463-2.785-2.939-4.274-4.312c-5.711-5.724-11.987-10.831-18.403-15.695c-3.272-2.361-6.558-4.684-9.997-6.789
		c-3.362-2.22-6.917-4.146-10.434-6.071c-7.123-3.76-14.566-6.891-22.202-9.368c-1.938-0.552-3.837-1.206-5.788-1.681
		c-1.964-0.462-3.914-0.95-5.865-1.373l-5.942-0.975c-1.989-0.269-4.004-0.385-5.993-0.577c-5.403-0.334-10.87-0.102-16.132,0.898
		c-1.617-2.682-3.298-5.326-5.044-7.918c-7.456-11.191-15.875-21.753-25.333-31.327c-9.394-9.625-19.879-18.211-31.237-25.436
		c-5.621-3.709-11.666-6.763-17.762-9.612c-1.54-0.68-3.118-1.283-4.671-1.925c-1.566-0.616-3.093-1.322-4.71-1.809
		c-3.196-1.052-6.353-2.22-9.638-2.99c-1.63-0.411-3.247-0.873-4.89-1.245l-4.954-0.924l-2.464-0.462l-2.502-0.295l-5.005-0.539
		c-1.668-0.141-3.35-0.128-5.018-0.193l-2.503-0.077l-1.258-0.026l-1.258,0.051c-3.337,0.206-6.661,0.193-9.959,0.732
		c-8.969,1.045-17.702,3.337-25.997,6.6c-8.64-4.035-17.551-7.503-26.644-10.376c-24.415-7.731-50.205-11.171-75.653-9.959
		c-22.826,1.215-45.39,6.128-66.009,15.084c-2.148-0.467-4.303-0.914-6.465-1.336c-2.195-0.424-4.389-0.924-6.609-1.232
		l-6.661-1.014l-3.337-0.5l-3.349-0.398l-6.712-0.744c-2.233-0.295-4.492-0.334-6.738-0.513c-2.246-0.141-4.492-0.308-6.75-0.411
		l-6.75-0.167c-2.259-0.051-4.517-0.141-6.763-0.051c-4.517,0.115-9.022,0.141-13.514,0.5l-6.738,0.436l-6.712,0.706
		c-4.492,0.423-8.919,1.142-13.36,1.809l-3.324,0.501l-3.298,0.616l-6.596,1.27c-1.065,0.218-2.118,0.449-3.183,0.681
		c-20.713-9.048-43.403-14.014-66.362-15.234c-25.449-1.219-51.244,2.22-75.654,9.959c-9.099,2.875-18.005,6.34-26.642,10.369
		c-8.29-3.259-17.03-5.557-26.001-6.596c-3.285-0.539-6.622-0.526-9.959-0.732l-1.258-0.051l-1.245,0.026l-2.515,0.077
		c-1.668,0.064-3.35,0.051-5.018,0.193l-4.992,0.539l-2.502,0.295l-2.477,0.462l-4.954,0.924c-1.643,0.372-3.26,0.834-4.89,1.245
		c-3.285,0.77-6.429,1.938-9.638,2.99c-1.617,0.488-3.144,1.193-4.71,1.809c-1.553,0.642-3.131,1.245-4.671,1.925
		c-6.096,2.849-12.141,5.903-17.762,9.612c-11.358,7.225-21.843,15.811-31.237,25.436c-9.445,9.574-17.864,20.136-25.333,31.327
		c-1.745,2.605-3.414,5.262-5.043,7.944c-5.262-1.014-10.729-1.258-16.132-0.924c-1.989,0.193-4.004,0.308-5.993,0.577l-5.942,0.975
		c-1.951,0.424-3.901,0.911-5.865,1.373c-1.951,0.475-3.85,1.129-5.788,1.681c-7.636,2.477-15.079,5.608-22.202,9.368
		c-3.516,1.925-7.071,3.85-10.434,6.071c-3.427,2.105-6.725,4.428-9.997,6.789c-6.417,4.864-12.693,9.972-18.403,15.695
		c-1.489,1.373-2.862,2.849-4.261,4.312c-1.399,1.476-2.823,2.913-4.145,4.453c-2.618,3.08-5.313,6.109-7.751,9.369
		c-5.056,6.353-9.433,13.231-13.565,20.264c-1.976,3.568-3.953,7.148-5.634,10.87c-0.847,1.861-1.797,3.67-2.554,5.57l-2.323,5.685
		c-0.809,1.886-1.399,3.863-2.066,5.788c-0.629,1.951-1.335,3.876-1.899,5.852l-1.617,5.942c-0.257,0.988-0.565,1.976-0.77,2.977
		l-0.629,3.016l-1.206,6.045l-0.834,6.096l-0.411,3.054c-0.128,1.014-0.167,2.053-0.257,3.067l-0.424,6.147
		c-0.141,2.04-0.039,4.106-0.077,6.147c0.039,2.053-0.064,4.107,0.077,6.147l0.411,6.122l0.231,3.055l0.347,2.939
		c0.513,3.914,0.885,7.829,1.501,11.73c0.642,3.889,1.168,7.79,1.925,11.653c2.811,15.503,6.738,30.788,11.512,45.61
		c2.349,7.418,4.902,14.733,7.136,22.035c0.501,1.823,1.04,3.645,1.527,5.467c-3.555,15.798-7.443,31.48-11.768,47.035l-1.925,7.02
		l-2.04,6.981c-1.373,4.646-2.708,9.304-4.209,13.924c-1.463,4.62-2.823,9.266-4.376,13.86l-4.594,13.796L50,542.851l11.14-0.013
		c7.495-0.013,15.079-1.501,22.061-4.286c7.007-2.747,13.308-6.789,18.891-11.396c5.583-4.607,10.485-9.792,14.836-15.259
		c4.363-5.467,8.226-11.204,11.755-17.069c7.084-11.717,12.718-23.999,17.723-36.409c1.309-3.273,2.567-6.571,3.786-9.869
		c0.141,2.836,0.269,5.659,0.257,8.496l0.039,5.364l-0.128,5.377c-0.347,14.297-1.784,28.516-3.67,42.71
		c-0.911,7.11-1.964,14.22-3.016,21.342c-1.039,7.135-2.079,14.296-3.054,21.483c-1.925,14.386-3.504,28.952-4.171,43.634
		c-1.54,29.35,0.693,59.021,5.865,87.986c2.669,14.476,6.07,28.786,9.92,42.941c2.066,7.033,4.055,14.104,6.366,21.047
		c2.22,6.994,4.492,13.899,6.956,20.739c9.677,27.451,20.572,54.542,33.213,80.877c6.327,13.167,13.013,26.168,20.29,38.86
		c7.213,12.731,15.002,25.141,23.319,37.217c16.684,24.063,35.741,46.74,58.02,65.913c11.152,9.535,23.075,18.211,35.831,25.398
		c6.391,3.567,12.923,6.853,19.648,9.651c3.734,1.54,7.52,2.951,11.345,4.222c15.285,20.149,33.316,38.424,53.888,53.644
		c25.436,18.917,54.658,32.815,85.176,41.414c15.259,4.363,30.852,7.392,46.522,9.458c15.695,1.899,31.481,2.695,47.189,2.849
		c15.708-0.128,31.494-0.95,47.189-2.836c15.67-2.053,31.262-5.108,46.521-9.445c30.518-8.611,59.753-22.484,85.189-41.414
		c20.586-15.23,38.635-33.524,53.923-53.681c3.808-1.269,7.579-2.672,11.306-4.205c6.724-2.8,13.252-6.092,19.639-9.659
		c12.755-7.182,24.676-15.858,35.83-25.398c22.281-19.174,41.341-41.848,58.028-65.912c8.315-12.068,16.108-24.485,23.311-37.217
		c7.274-12.696,13.969-25.696,20.298-38.857c12.637-26.335,23.527-53.424,33.213-80.875c2.462-6.849,4.734-13.751,6.953-20.748
		c2.309-6.944,4.298-14.006,6.359-21.041c3.856-14.156,7.254-28.462,9.926-42.939c5.172-28.971,7.401-58.637,5.863-87.996
		c-0.667-14.675-2.244-29.239-4.172-43.623c-0.971-7.198-2.009-14.352-3.05-21.486c-1.06-7.13-2.103-14.239-3.017-21.342
		c-1.894-14.201-3.331-28.415-3.678-42.717l-0.128-5.368l0.046-5.369c-0.017-2.834,0.117-5.66,0.249-8.492
		c1.221,3.299,2.48,6.588,3.79,9.865c5.005,12.41,10.639,24.691,17.723,36.409c3.529,5.865,7.392,11.602,11.755,17.069
		c4.351,5.467,9.253,10.652,14.848,15.259c5.57,4.607,11.871,8.65,18.891,11.396c6.969,2.785,14.553,4.274,22.048,4.286
		l11.152,0.013L1146.535,532.456z M415.297,204.109c8.216,2.06,16.133,6.331,22.672,11.983c6.585,5.637,11.903,12.405,16.336,19.362
		c4.442,6.979,8.056,14.191,11.334,21.344c6.535,14.331,11.762,28.456,18.233,41.736c3.206,6.662,6.778,13.081,10.941,19.267
		c2.063,3.115,4.344,6.097,6.742,9.092c1.26,1.42,2.461,2.965,3.771,4.409c1.33,1.417,2.686,2.848,4.018,4.387
		c-7.722-2.23-14.951-6.318-21.417-11.401c-6.472-5.104-12.08-11.279-16.973-17.827c-9.765-13.194-16.493-27.812-22.822-41.665
		c-6.35-13.873-12.262-27.238-20.883-38.068c-4.275-5.462-9.439-10.098-15.564-13.928c-3.056-1.928-6.36-3.602-9.841-5.131
		c-0.877-0.359-1.766-0.697-2.655-1.079c-0.894-0.359-1.782-0.796-2.71-1.062c-1.839-0.626-3.707-1.252-5.607-1.984
		C398.716,201.926,407.072,202.035,415.297,204.109z M182.493,224.99c-3.003,12.898-5.493,25.744-7.995,38.578l-7.354,38.385
		c-2.438,12.769-5.018,25.475-7.623,38.167c-2.631,12.68-5.429,25.308-8.47,37.846c-3.016,12.538-6.237,25-9.882,37.307
		c-3.658,12.282-7.597,24.448-12.166,36.293c-4.595,11.807-9.741,23.37-15.888,34.124c-6.134,10.716-13.373,20.713-22.087,28.4
		c-4.35,3.812-9.073,7.02-14.168,9.176c-1.54,0.667-3.106,1.232-4.697,1.72l0.539-1.861c1.399-4.723,2.605-9.51,3.914-14.271
		c1.309-4.748,2.451-9.548,3.619-14.335l1.758-7.187l1.617-7.225c4.286-19.237,7.751-38.642,10.78-58.033l1.129-7.277l1.014-7.289
		l1.976-14.579l3.773-29.106c1.206-9.702,2.464-19.404,3.786-29.094l2.002-14.528c0.732-4.838,1.438-9.677,2.118-14.54
		c-1.271,4.736-2.503,9.471-3.722,14.22l-3.491,14.284c-2.194,9.548-4.312,19.109-6.391,28.696l-5.967,28.734
		c-1.72,8.316-3.529,16.619-5.313,24.897c-0.719-5.493-1.591-10.908-2.387-16.311c-2.4-15.246-4.428-30.326-5.737-45.469
		c-0.642-7.572-1.129-15.144-1.489-22.728l-0.154-2.836l-0.013-2.734c0-1.823-0.039-3.645-0.064-5.454
		c-0.039-1.823,0.154-3.632,0.205-5.441c0.128-1.822,0.116-3.632,0.334-5.429c0.218-1.81,0.424-3.606,0.603-5.416
		c0.103-0.898,0.154-1.797,0.295-2.695l0.449-2.682l0.898-5.351l1.219-5.3l0.59-2.657c0.193-0.885,0.475-1.745,0.706-2.618
		l1.476-5.236c0.513-1.733,1.168-3.427,1.745-5.147c0.603-1.719,1.142-3.452,1.861-5.12c5.236-13.552,12.218-26.501,20.752-38.45
		c8.419-12.038,18.416-23.023,29.414-32.956c5.544-4.928,11.396-9.51,17.467-13.809c6.122-4.235,12.513-8.072,19.186-11.409
		c6.661-3.375,13.642-6.16,20.919-8.072c4.594-1.194,9.317-2.066,14.143-2.4c-4.864,8.252-9.176,16.838-12.962,25.667l-1.976,4.672
		l-1.784,4.761c-1.258,3.144-2.246,6.391-3.311,9.625c-0.552,1.604-0.988,3.247-1.45,4.89l-1.373,4.915
		C184.033,218.535,183.251,221.769,182.493,224.99z M191.329,729.6c-5.89-29.33-7.32-59.466-5.752-89.124
		c1.543-29.703,5.962-58.963,11.5-87.764c2.799-14.406,5.856-28.719,9.069-43.001c3.245-14.281,6.505-28.543,10.069-42.873
		c0.587,14.761,0.065,29.502-0.748,44.179c-0.846,14.677-2.125,29.284-3.457,43.827c-2.729,29.08-5.747,57.902-7.214,86.624
		c-1.479,28.717-1.405,57.349,1.499,85.868c1.417,14.261,3.547,28.482,6.338,42.673c2.758,14.207,6.311,28.324,10.151,42.589
		C207.486,787.331,197.232,758.882,191.329,729.6z M237.035,262.729c2.578-22.579,8.875-44.768,18.337-65.509
		c9.466-20.729,22.111-40.12,37.834-56.677c7.879-8.246,16.518-15.781,25.905-22.181c9.391-6.367,19.481-11.721,30.159-15.125
		c-17.388,14.034-31.963,29.777-44.51,47.004c-12.553,17.183-23.081,35.671-31.876,54.958
		c-8.766,19.305-15.817,39.412-20.944,60.166c-5.181,20.778-8.255,42.107-9.498,64.415c-3.483-10.656-5.343-21.837-6.187-33.102
		C235.44,285.401,235.776,274.017,237.035,262.729z M279.791,653.414l-1.987,2.981c-1.301,1.997-2.448,4.106-3.681,6.133
		c-1.065,2.148-2.173,4.255-3.207,6.406l-1.453,3.281c-0.495,1.086-0.978,2.177-1.369,3.318c-0.795,2.27-1.777,4.446-2.455,6.769
		c-0.746,2.289-1.52,4.564-2.083,6.925c-0.3,1.171-0.642,2.33-0.968,3.493c-0.302,1.172-0.542,2.367-0.818,3.549l-0.806,3.552
		l-0.628,3.607c-3.465,19.23-3.977,39.273-2.984,59.478c0.923,20.267,3.768,40.605,6.344,61.615
		c-5.223-9.225-9.422-18.96-13.011-28.953c-3.557-10.003-6.374-20.311-8.36-30.837c-3.929-21.024-4.866-43.026-0.922-64.756
		l0.774-4.061l0.972-4.038c0.333-1.344,0.632-2.693,0.997-4.031c0.398-1.332,0.78-2.669,1.203-3.994
		c0.772-2.666,1.775-5.278,2.759-7.889c0.912-2.631,2.134-5.173,3.291-7.718c4.746-10.143,11.138-19.674,19.114-27.642
		c7.934-7.988,17.319-14.431,27.397-18.768c10.082-4.338,20.762-6.702,31.36-6.954c-2.391,1.198-4.784,2.243-7.132,3.355
		l-6.864,3.588c-2.189,1.362-4.408,2.582-6.541,3.927c-2.065,1.473-4.213,2.744-6.184,4.274
		c-7.997,5.928-14.934,12.808-20.66,20.484l-1.1,1.412L279.791,653.414z M326.085,870.962c-2.392-1.181-4.665-2.549-6.888-4.005
		c-4.41-2.949-8.441-6.41-12.177-10.177c-7.41-7.583-13.436-16.559-17.758-26.293c-2.195-4.852-3.941-9.907-5.239-15.063
		c-1.354-5.141-2.135-10.419-2.533-15.691c-0.601-10.566,0.39-21.214,4.396-31.182c1.14,2.486,1.969,4.926,2.864,7.329
		c0.953,2.398,1.666,4.776,2.582,7.104l1.219,3.485l1.257,3.436c0.783,2.288,1.67,4.528,2.469,6.766
		c3.352,8.912,6.717,17.521,10.55,25.946c3.762,8.454,7.917,16.72,12.357,25.121c4.449,8.448,9.188,16.831,14.393,26.13
		C330.942,873.202,328.469,872.143,326.085,870.962z M350.398,435.132c-5.319-3.425-10.188-7.197-14.872-10.936
		c-4.72-3.689-9.258-7.435-14.209-10.393c-2.461-1.54-5.055-2.762-7.786-3.781c-1.668-0.642-3.408-1.041-5.194-1.337
		c-1.558,0.732-3.129,1.44-4.728,2.097c-3.593,1.438-7.278,2.755-11.068,3.399c1.695-0.901,3.314-1.881,4.897-2.899
		c1.572-1.046,3.094-2.15,4.596-3.282c3.007-2.252,5.919-4.636,8.821-7.046c5.811-4.811,11.575-9.781,17.668-14.504
		c6.08-4.738,12.464-9.282,19.459-13.232c6.99-3.929,14.674-7.258,23.207-8.972c8.478-1.715,17.957-1.429,26.619,1.508
		c4.327,1.437,8.423,3.438,12.177,5.805c3.749,2.387,7.139,5.152,10.256,8.083c3.11,2.94,5.991,6.039,8.529,9.317
		c2.586,3.252,4.949,6.608,7.128,10.028c4.389,6.833,8.008,13.963,11.307,21.135l3.831,8.328l-7.841,3.986
		c-2.824,1.436-5.615,2.904-8.486,4.263l-4.366,1.953l-2.184,0.971l-2.252,0.869l-4.517,1.691c-1.536,0.509-3.098,0.97-4.644,1.453
		l-2.324,0.714l-2.385,0.589c-1.597,0.373-3.168,0.803-4.783,1.119c-6.465,1.226-13.156,1.837-19.855,1.509
		c-6.692-0.346-13.382-1.591-19.625-3.817C361.507,441.586,355.718,438.528,350.398,435.132z M367.926,648.907
		c0.24-11.303,1.635-22.606,3.94-33.727c4.67-22.24,13.007-43.746,24.361-63.516c11.357-19.756,25.753-37.886,42.95-52.905
		c8.613-7.475,17.917-14.173,27.859-19.671c9.943-5.465,20.488-9.855,31.437-12.249c-18.62,12.353-34.598,26.669-48.696,42.652
		c-14.099,15.939-26.304,33.365-36.858,51.749c-10.526,18.404-19.421,37.767-26.459,57.953
		c-7.095,20.205-12.142,41.155-15.459,63.249C368.527,671.508,367.717,660.202,367.926,648.907z M370.891,725.165
		c1.236-0.127,2.406-0.168,3.556-0.221c1.144-0.033,2.291-0.18,3.383-0.223c2.209-0.191,4.317-0.399,6.339-0.754
		c4.046-0.643,7.687-1.671,11.164-2.997c6.914-2.66,13.565-6.579,21.311-10.551c7.676-3.94,16.447-7.804,25.985-9.399
		c9.5-1.582,19.547-0.921,28.226,3.28c-4.424,2.027-8.516,3.672-12.399,5.499c-3.886,1.776-7.543,3.635-11.122,5.57
		c-7.156,3.851-14.023,8.082-21.904,12.174c-3.941,2.027-8.156,3.979-12.759,5.529c-4.589,1.542-9.604,2.674-14.768,2.835
		c-5.158,0.184-10.384-0.723-15.016-2.566C378.252,731.454,374.153,728.755,370.891,725.165z M390.873,778.818
		c7.872,0.859,14.914-0.275,21.335-2.911c6.426-2.659,12.383-6.349,18.207-10.497c11.64-8.307,22.895-18.042,34.975-27.242
		c12.049-9.207,24.876-18.192,39.256-24.924c7.184-3.325,14.714-6.131,22.531-7.831c7.799-1.672,15.882-2.359,23.659-1.113
		c-14.57,5.725-26.74,13.376-38.573,21.983c-11.81,8.558-23.18,17.95-35.165,27.162c-5.993,4.599-12.14,9.148-18.605,13.449
		c-6.468,4.288-13.253,8.364-20.609,11.703c-7.341,3.287-15.324,5.964-23.724,6.566
		C405.795,785.771,397.076,783.643,390.873,778.818z M742.715,854.95c1.964,33.572,15.747,49.768,33.175,6.866
		c0.218,0,0.423,0.013,0.642,0.013c2.913,0.141,5.955,0,8.958-0.334c-1.13,3.106-2.246,6.109-3.529,9.035
		c-0.475,1.309-1.13,2.58-1.694,3.863c-0.577,1.271-1.065,2.554-1.72,3.786c-0.629,1.232-1.206,2.477-1.771,3.709
		c-0.655,1.219-1.322,2.413-1.925,3.632c-5.095,9.625-10.921,18.647-17.3,27.438c-6.417,8.778-13.334,17.338-20.585,25.949
		c-4.671,5.608-9.471,11.165-14.348,16.992c0.295-6.391,0.257-12.756-0.128-19.083c-0.731-13.27-2.759-26.36-5.788-39.142
		c-3.08-12.782-7.084-25.295-12.307-37.282c-2.631-5.98-5.493-11.858-8.727-17.518c-2.349-3.979-4.825-7.893-7.61-11.55
		c6.34,0.642,12.731,1.322,19.173,2.002c2.541,2.028,5.146,4.004,7.816,5.929c7.02,5.056,14.489,9.702,22.536,13.462
		C739.263,853.512,740.983,854.257,742.715,854.95z M687.659,821.839c-9.33-3.363-18.865-6.135-28.529-8.419
		c-9.651-2.297-19.456-3.991-29.325-5.249c-4.941-0.654-9.907-1.026-14.861-1.476c-4.979-0.282-9.959-0.565-14.938-0.642
		l-3.747-0.051l-2.182,0.026l-1.566,0.013c-2.49,0.051-4.992,0.013-7.482,0.141c-4.992,0.269-9.984,0.487-14.951,1.026
		c-9.946,0.975-19.853,2.464-29.594,4.749c-4.89,1.052-9.702,2.438-14.489,3.824c-2.4,0.731-4.761,1.54-7.123,2.348
		c-2.362,0.822-4.71,1.617-7.02,2.592l-6.905,2.849c-0.475,0.218-0.937,0.436-1.411,0.667c6.75-5.98,13.193-12.14,19.558-18.185
		c11.935-11.294,23.562-22.561,36.255-31.198c6.327-4.312,12.872-7.97,19.661-10.382l2.554-0.834
		c0.847-0.282,1.694-0.59,2.567-0.757l2.58-0.603c0.86-0.218,1.72-0.436,2.592-0.514l2.605-0.372l1.309-0.192
		c0.436-0.039,0.873-0.039,1.309-0.064l2.631-0.116l1.322-0.064c0.462-0.013,1.014,0,1.514,0h1.527l1.309,0.077l2.631,0.116
		c0.436,0.026,0.873,0.013,1.309,0.064l1.309,0.192l2.605,0.359c0.873,0.09,1.732,0.295,2.592,0.514l2.592,0.603
		c0.86,0.167,1.707,0.488,2.554,0.757l2.554,0.834c6.776,2.425,13.334,6.07,19.648,10.395c12.693,8.637,24.332,19.892,36.255,31.198
		c7.071,6.699,14.207,13.552,21.779,20.097C695.026,824.611,691.355,823.199,687.659,821.839z M477.523,936.815
		c-0.359,6.147-0.398,12.32-0.141,18.519c-4.71-5.608-9.343-10.998-13.86-16.427c-7.251-8.611-14.168-17.171-20.585-25.949
		c-6.378-8.791-12.218-17.813-17.3-27.438c-0.603-1.219-1.271-2.413-1.925-3.632c-0.565-1.232-1.142-2.477-1.771-3.709
		c-0.667-1.232-1.142-2.515-1.733-3.786c-0.552-1.283-1.206-2.554-1.681-3.863c-1.283-2.926-2.4-5.929-3.529-9.022
		c2.849,0.282,5.698,0.424,8.457,0.295c0.211,0.001,0.421-0.013,0.632-0.014c17.441,42.946,31.243,26.721,33.19-6.883
		c1.732-0.698,3.446-1.43,5.128-2.215c8.047-3.747,15.503-8.406,22.523-13.45c2.862-2.053,5.659-4.183,8.38-6.378
		c6.609-1.014,13.154-1.99,19.648-2.849c-3.208,4.03-5.993,8.406-8.637,12.859c-3.221,5.66-6.083,11.537-8.701,17.518
		c-5.236,11.987-9.24,24.512-12.307,37.282C480.295,910.467,478.268,923.545,477.523,936.815z M547.055,1040.509
		c-5.416-2.259-10.523-5.082-15.336-8.303c-9.612-6.481-17.672-15.079-23.896-25.077c-6.199-10.023-10.575-21.38-13.372-33.264
		c-2.81-11.897-4.107-24.307-4.338-36.794c-0.193-12.5,0.667-25.115,2.451-37.641c1.758-12.526,4.44-24.987,8.034-37.217
		c1.809-6.109,3.901-12.153,6.327-18.07c1.976-4.877,4.209-9.638,6.84-14.245c9.702-1.296,19.34-2.361,29.004-3.029
		c4.736-0.449,9.497-0.616,14.22-0.95c2.374-0.141,4.748-0.154,7.123-0.295l3.542-0.167l3.555-0.064
		c2.374-0.026,4.735-0.167,7.11-0.18l7.11-0.051c2.374-0.026,4.748,0.013,7.11,0.013l2.669,0.013
		c0.09,1.219,0.154,2.439,0.218,3.658c0.321,6.635,0.719,13.129,0.809,19.635c0.321,13,0.269,25.872-0.064,38.834
		c-0.308,12.949-0.873,25.949-1.373,39.117c-0.436,13.205-0.988,26.475-0.693,40.413c1.964-2.913,3.606-5.993,5.146-9.099
		c1.54-3.106,2.9-6.275,4.197-9.471c2.541-6.404,4.607-12.975,6.353-19.622c3.414-13.321,5.287-27.053,5.608-40.875
		c0.321-13.822-0.911-27.784-4.209-41.337c-1.643-6.776-3.889-13.424-6.622-19.828c-0.193-0.424-0.385-0.834-0.578-1.245
		c3.298,0.064,6.596,0.192,9.895,0.308c4.748,0.18,9.497,0.398,14.258,0.68c9.51,0.513,19.032,1.232,28.593,2.015
		c10.049,0.834,20.084,1.809,30.223,2.836c2.31,4.197,4.312,8.521,6.096,12.949c2.425,5.916,4.505,11.948,6.314,18.057
		c3.594,12.23,6.276,24.692,8.034,37.217c1.771,12.526,2.631,25.141,2.438,37.641c-0.231,12.487-1.54,24.897-4.338,36.781
		c-2.798,11.884-7.161,23.241-13.36,33.264c-6.237,9.997-14.271,18.596-23.896,25.077c-4.813,3.221-9.907,6.057-15.323,8.303
		c-5.416,2.259-11.063,4.043-16.863,5.403c-11.601,2.81-23.742,3.811-36.075,3.811c-12.32,0.013-24.461-1.001-36.075-3.799
		C558.118,1044.552,552.458,1042.768,547.055,1040.509z M1043.761,511.349c0.691,14.538,1.924,28.944,2.883,43.26l0.676,10.72
		l0.532,10.689c0.249,7.117,0.442,14.219,0.429,21.303c-0.008,3.543-0.008,7.083-0.144,10.617l-0.149,5.301l-0.272,5.292l-0.26,5.29
		l-0.403,5.279l-0.406,5.277l-0.553,5.264c-1.5,14.03-3.61,27.994-6.453,41.839c-2.818,13.852-6.334,27.576-10.219,41.211
		c-2.034,6.798-3.989,13.615-6.271,20.349c-2.16,6.748-4.493,13.518-6.844,20.269c-9.432,26.986-19.824,53.606-31.509,79.604
		c-11.736,25.964-24.698,51.365-39.695,75.498c-14.96,24.13-31.925,47.073-51.854,67.314c-9.965,10.108-20.721,19.457-32.301,27.789
		c-5.804,4.14-11.823,8.015-18.079,11.512c-2.72,1.566-5.499,3.029-8.313,4.434c3.019-4.066,5.94-8.197,8.735-12.399
		c8.611-13.039,16.311-26.604,22.959-40.605c1.656-3.516,3.311-7.007,4.838-10.575l2.323-5.313l2.207-5.364
		c2.875-7.174,5.557-14.412,8.008-21.727c-13.77,27.566-29.081,54.26-47.985,78.041c-18.737,23.844-40.631,44.981-65.477,61.588
		c-1.514,1.091-3.119,2.041-4.697,3.055l-4.723,2.977c-3.17,1.964-6.468,3.722-9.689,5.595c-3.247,1.81-6.596,3.452-9.895,5.185
		c-3.311,1.681-6.75,3.157-10.113,4.735c-13.616,5.994-27.72,10.909-42.145,14.63c-14.425,3.734-29.132,6.481-43.993,8.188
		c-14.887,1.668-29.851,2.387-44.917,2.451c-10.382-0.039-20.713-0.411-31.006-1.168c6.661-5.852,11.55-18.878,11.204-30.582
		c-0.27-9.151-3.581-16.607-9.407-21.484c2.977,0.475,5.955,0.873,8.919,1.207c6.776,0.796,13.604,0.963,20.29,1.065
		c6.686-0.09,13.514-0.269,20.29-1.065c6.776-0.744,13.578-1.797,20.303-3.529c13.385-3.388,26.63-8.868,38.154-17.223
		c11.525-8.29,21.201-19.173,28.028-31.403c3.439-6.096,6.263-12.474,8.496-18.994c2.22-6.519,3.876-13.167,5.069-19.841
		c0.809-4.44,1.386-8.893,1.771-13.347c0.423-0.154,0.847-0.308,1.271-0.462c2.862-1.065,5.608-2.323,8.342-3.645
		c5.429-2.682,10.588-5.878,15.516-9.407c9.843-7.097,18.609-15.798,25.885-25.769c7.212-9.985,12.949-21.342,15.901-33.521
		c1.527-6.045,2.194-12.32,2.194-18.506c-0.064-1.553-0.103-3.093-0.205-4.633c-0.116-1.54-0.347-3.08-0.578-4.594
		c-0.128-0.732-0.218-1.45-0.359-2.169c0.026,0,0.051-0.013,0.077-0.013c9.035-1.553,17.685-4.954,25.295-9.664
		c7.623-4.697,14.284-10.549,20.11-16.953c5.839-6.417,10.857-13.372,15.31-20.585c4.44-7.238,8.265-14.746,11.73-22.382
		c3.439-7.636,6.507-15.413,9.137-23.306c5.275-15.785,9.42-31.904,11.897-48.254c-2.272,7.944-4.825,15.772-7.674,23.485
		c-2.81,7.726-5.852,15.362-9.202,22.818c-6.686,14.925-14.297,29.414-23.755,42.402c-4.697,6.481-9.779,12.641-15.451,18.057
		c-5.647,5.416-11.781,10.203-18.442,13.77c-6.661,3.542-13.758,5.916-21.034,6.802c-3.67,0.424-7.251,0.591-11.037,0.218
		c-3.773-0.167-7.495-0.744-11.165-1.45c-7.354-1.489-14.463-4.107-21.227-7.623c-6.789-3.478-13.257-7.752-19.468-12.538
		c-12.423-9.612-23.883-21.008-35.562-32.661c-5.839-5.826-11.82-11.666-18.095-17.389c-6.275-5.711-12.859-11.306-20.097-16.376
		c-7.238-5.031-15.182-9.548-23.922-12.731l-3.311-1.104c-1.117-0.372-2.207-0.77-3.362-1.014l-3.426-0.821
		c-1.142-0.282-2.284-0.552-3.465-0.693l-3.516-0.513l-1.758-0.257c-0.59-0.064-1.181-0.064-1.771-0.102l-3.542-0.18l-1.771-0.09
		c-0.577-0.013-1.052,0-1.578,0l-1.566,0.013l-1.784,0.077l-3.542,0.18c-0.59,0.039-1.181,0.051-1.771,0.115l-1.758,0.244
		l-3.504,0.513c-1.181,0.141-2.323,0.411-3.465,0.693l-3.439,0.834c-1.155,0.244-2.246,0.642-3.35,1.001l-3.324,1.104
		c-4.453,1.63-8.688,3.593-12.744,5.801c28.965-26.414,56.786-59.563,61.265-111.974c-6.234,0.928-12.945,1.399-20.286,1.399
		c-47.95,0-69.29-19.871-103.072-58.62c-33.781-38.749-10.929-102.337,102.43-102.337h1.283c0.944,0,1.866,0.016,2.797,0.025
		c-0.873-18.036-1.1-36.095-0.837-54.016c13.855,0.169,27.73,0.7,41.734,1.574c14.948,0.878,29.912,2.135,45.582,3.318
		c-3.223-2.314-6.664-4.255-10.156-6.055c-3.496-1.802-7.076-3.42-10.705-4.917c-7.261-2.99-14.752-5.345-22.35-7.316
		c-14.232-3.633-28.913-5.498-43.643-5.828c0.235-7.048,0.535-14.065,0.898-21.038c5.125-0.003,10.285-0.048,15.571-0.194
		c6.714-0.259,13.468-0.534,21.079-1.614c-1.316-1.427-2.768-2.702-4.281-3.797c-1.505-1.148-3.083-2.11-4.684-3.064
		c-1.613-0.896-3.259-1.737-4.938-2.491c-0.838-0.381-1.69-0.704-2.543-1.043c-0.855-0.325-1.705-0.708-2.577-0.964
		c-5.384-1.845-10.993-2.926-16.66-3.33c3.116-47.836,8.679-93.216,13.512-132.573c8.83-71.945,15.387-125.435,3.208-147.663
		c25.68,1.848,51.257,6.982,76.565,13.963c33.149,9.073,65.797,21.137,99.075,32.251c-14.887-9.304-30.249-17.762-45.957-25.629
		c-15.721-7.828-31.866-14.951-48.511-21.034c-12.394-4.542-25.087-8.455-38.037-11.579c7.669-0.819,15.283-1.486,22.874-1.834
		c12.133-0.585,24.182-0.551,36.129,0.247c23.886,1.615,47.336,6.056,69.94,13.221c22.592,7.182,44.359,17.014,64.689,29.54
		c10.16,6.264,20.006,13.163,29.292,20.888c9.328,7.698,18.075,16.182,26.432,25.494c-4.798-11.561-11.721-22.303-19.712-32.153
		c-8.013-9.865-17.316-18.678-27.308-26.613c-12.023-9.468-25.143-17.556-38.978-24.187l0.499-0.135l2.336-0.642
		c0.783-0.218,1.591-0.321,2.374-0.488c3.183-0.59,6.327-1.296,9.535-1.553l4.787-0.565l4.8-0.18
		c3.183-0.231,6.391,0.077,9.561,0.167l1.193,0.039l1.181,0.141l2.374,0.282c1.578,0.218,3.157,0.334,4.723,0.616l4.671,0.911
		l2.323,0.436l2.297,0.616l4.581,1.206c1.514,0.475,3.003,1.014,4.492,1.514c3.016,0.924,5.904,2.259,8.817,3.452
		c1.476,0.565,2.849,1.348,4.273,2.015c1.412,0.719,2.836,1.386,4.222,2.13c5.506,3.08,10.896,6.366,15.978,10.1
		c10.228,7.379,19.584,15.978,27.874,25.513c16.568,19.045,29.838,41.016,38.809,64.476l1.668,4.402l1.489,4.453
		c1.052,2.952,1.874,5.967,2.759,8.958c0.475,1.489,0.834,3.003,1.206,4.517l1.129,4.53c0.693,3.093,1.36,6.224,1.989,9.369
		c2.502,12.59,4.761,25.372,6.969,38.18l3.298,19.263l3.414,19.289c2.323,12.872,4.659,25.757,7.289,38.603
		c2.618,12.859,5.403,25.706,8.445,38.513c3.106,12.795,6.494,25.552,10.292,38.244c2.173,7.284,4.542,14.528,7.085,21.732
		C1043.339,465.019,1042.538,488.395,1043.761,511.349z M1123.126,523.267c-5.082-2.156-9.818-5.364-14.168-9.176
		c-8.714-7.687-15.952-17.685-22.087-28.4c-6.147-10.755-11.281-22.318-15.888-34.124c-4.569-11.845-8.509-24.011-12.166-36.293
		c-3.632-12.307-6.866-24.769-9.882-37.307c-3.042-12.538-5.839-25.166-8.47-37.846c-2.605-12.692-5.185-25.398-7.623-38.167
		l-7.354-38.385c-2.49-12.834-4.992-25.68-7.995-38.578c-0.757-3.221-1.54-6.455-2.374-9.689l-1.373-4.915
		c-0.462-1.643-0.898-3.285-1.45-4.89c-1.065-3.234-2.053-6.481-3.298-9.625l-1.797-4.761l-1.976-4.672
		c-3.786-8.829-8.072-17.415-12.936-25.667c4.813,0.321,9.523,1.206,14.117,2.4c7.277,1.912,14.258,4.697,20.919,8.072
		c6.673,3.337,13.064,7.174,19.186,11.409c6.07,4.299,11.922,8.881,17.467,13.809c10.998,9.933,20.996,20.919,29.414,32.956
		c8.534,11.948,15.516,24.897,20.752,38.45c0.719,1.668,1.258,3.401,1.861,5.12c0.577,1.72,1.232,3.414,1.745,5.147l1.476,5.236
		c0.231,0.873,0.513,1.733,0.719,2.618l0.577,2.657l1.219,5.3l0.898,5.351l0.449,2.682c0.141,0.898,0.193,1.797,0.308,2.695
		c0.167,1.809,0.372,3.606,0.59,5.416c0.218,1.797,0.205,3.606,0.334,5.429c0.064,1.809,0.244,3.619,0.205,5.441
		c-0.026,1.809-0.064,3.632-0.064,5.454l-0.013,2.734l-0.141,2.836c-0.372,7.585-0.847,15.156-1.502,22.728
		c-1.309,15.143-3.337,30.223-5.724,45.469c-0.808,5.39-1.694,10.793-2.4,16.273c-1.797-8.265-3.594-16.542-5.313-24.858
		l-5.968-28.734c-2.066-9.587-4.197-19.148-6.391-28.696l-3.491-14.284c-1.219-4.748-2.451-9.484-3.722-14.22
		c0.68,4.864,1.399,9.702,2.131,14.54l1.989,14.528c1.322,9.689,2.58,19.392,3.786,29.094l3.786,29.106l1.964,14.579l1.014,7.289
		l1.129,7.277c3.042,19.391,6.494,38.796,10.78,58.033l1.63,7.225l1.745,7.187c1.168,4.787,2.31,9.587,3.619,14.335
		c1.309,4.761,2.515,9.548,3.914,14.271l0.539,1.861C1126.232,524.512,1124.667,523.934,1123.126,523.267z"/>
	<path fill="#C69C6D" d="M1123.37,508.855c-1.309-4.748-2.451-9.548-3.619-14.335l-1.745-7.187l-1.63-7.225
		c-4.286-19.237-7.739-38.642-10.78-58.033l-1.129-7.277l-1.014-7.289l-1.964-14.579l-3.786-29.106
		c-1.206-9.702-2.464-19.404-3.786-29.094l-1.989-14.528c-0.732-4.838-1.45-9.677-2.131-14.54c1.271,4.736,2.503,9.471,3.722,14.22
		l3.491,14.284c2.194,9.548,4.325,19.109,6.391,28.696l5.968,28.734c1.72,8.316,3.516,16.594,5.313,24.858
		c0.706-5.48,1.591-10.883,2.4-16.273c2.387-15.246,4.415-30.326,5.724-45.469c0.655-7.572,1.129-15.144,1.502-22.728l0.141-2.836
		l0.013-2.734c0-1.823,0.039-3.645,0.064-5.454c0.038-1.823-0.141-3.632-0.205-5.441c-0.128-1.822-0.116-3.632-0.334-5.429
		c-0.218-1.81-0.424-3.606-0.59-5.416c-0.116-0.898-0.167-1.797-0.308-2.695l-0.449-2.682l-0.898-5.351l-1.219-5.3l-0.577-2.657
		c-0.205-0.885-0.488-1.745-0.719-2.618l-1.476-5.236c-0.513-1.733-1.168-3.427-1.745-5.147c-0.603-1.719-1.142-3.452-1.861-5.12
		c-5.236-13.552-12.218-26.501-20.752-38.45c-8.419-12.038-18.416-23.023-29.414-32.956c-5.544-4.928-11.396-9.51-17.467-13.809
		c-6.122-4.235-12.513-8.072-19.186-11.409c-6.661-3.375-13.642-6.16-20.919-8.072c-4.594-1.194-9.304-2.079-14.117-2.4
		c4.864,8.252,9.15,16.838,12.936,25.667l1.976,4.672l1.797,4.761c1.245,3.144,2.233,6.391,3.298,9.625
		c0.552,1.604,0.988,3.247,1.45,4.89l1.373,4.915c0.834,3.234,1.617,6.468,2.374,9.689c3.003,12.898,5.505,25.744,7.995,38.578
		l7.354,38.385c2.438,12.769,5.018,25.475,7.623,38.167c2.631,12.68,5.429,25.308,8.47,37.846c3.016,12.538,6.25,25,9.882,37.307
		c3.657,12.282,7.597,24.448,12.166,36.293c4.607,11.807,9.741,23.37,15.888,34.124c6.134,10.716,13.373,20.713,22.087,28.4
		c4.35,3.812,9.086,7.02,14.168,9.176c1.54,0.667,3.106,1.245,4.697,1.72l-0.539-1.861
		C1125.886,518.403,1124.679,513.616,1123.37,508.855z"/>
	<path d="M701.516,571.37c0,0-29.962,16.66-30.203-7.929c-0.259-26.485-30.203-30.373-29.684-1.705
		C642.305,599.037,679.836,599.884,701.516,571.37z"/>
	<path d="M530.141,563.441c-0.241,24.589-30.203,7.929-30.203,7.929c21.681,28.514,59.211,27.667,59.886-9.635
		C560.343,533.068,530.4,536.956,530.141,563.441z"/>
	<path d="M828.124,615.18c-4.67-22.24-13.007-43.746-24.361-63.516c-11.357-19.756-25.753-37.886-42.95-52.905
		c-8.613-7.475-17.916-14.173-27.859-19.671c-9.943-5.465-20.488-9.855-31.437-12.249c18.62,12.353,34.599,26.669,48.696,42.652
		c14.099,15.939,26.304,33.365,36.858,51.749c10.526,18.404,19.421,37.767,26.459,57.953c7.095,20.205,12.142,41.155,15.458,63.249
		c2.475-10.934,3.285-22.24,3.076-33.535C831.823,637.604,830.428,626.301,828.124,615.18z"/>
	<path d="M957.811,695.914l-0.972-4.038c-0.333-1.344-0.632-2.693-0.997-4.031c-0.398-1.332-0.78-2.669-1.203-3.994
		c-0.772-2.666-1.775-5.278-2.759-7.889c-0.912-2.631-2.134-5.173-3.291-7.718c-4.746-10.143-11.138-19.674-19.114-27.642
		c-7.934-7.988-17.319-14.431-27.397-18.768c-10.082-4.338-20.762-6.702-31.36-6.954c2.391,1.198,4.784,2.243,7.132,3.355
		l6.864,3.588c2.188,1.362,4.408,2.582,6.541,3.927c2.065,1.473,4.213,2.744,6.184,4.274c7.997,5.928,14.934,12.808,20.66,20.484
		l1.1,1.412l1,1.494l1.987,2.981c1.301,1.997,2.448,4.106,3.682,6.133c1.065,2.148,2.173,4.255,3.207,6.406l1.453,3.281
		c0.495,1.086,0.978,2.177,1.369,3.318c0.795,2.27,1.777,4.446,2.455,6.769c0.746,2.289,1.52,4.564,2.083,6.925
		c0.3,1.171,0.642,2.33,0.968,3.493c0.302,1.172,0.542,2.367,0.818,3.549l0.806,3.552l0.628,3.607
		c3.465,19.23,3.977,39.273,2.984,59.478c-0.923,20.267-3.768,40.605-6.344,61.615c5.223-9.225,9.422-18.96,13.011-28.953
		c3.557-10.003,6.374-20.311,8.36-30.837c3.929-21.024,4.866-43.026,0.922-64.756L957.811,695.914z"/>
	<path d="M1002.912,552.713c-2.799-14.406-5.856-28.719-9.069-43.001c-3.245-14.281-6.505-28.543-10.069-42.873
		c-0.587,14.761-0.065,29.502,0.748,44.179c0.846,14.677,2.125,29.284,3.458,43.827c2.729,29.08,5.747,57.902,7.214,86.624
		c1.479,28.717,1.405,57.349-1.499,85.868c-1.417,14.261-3.547,28.482-6.338,42.673c-2.758,14.207-6.311,28.324-10.151,42.589
		c15.298-25.268,25.552-53.716,31.455-82.998c5.89-29.33,7.32-59.466,5.752-89.124
		C1012.869,610.773,1008.451,581.513,1002.912,552.713z"/>
	<path d="M911.239,775.88c-0.953,2.398-1.666,4.776-2.582,7.104l-1.219,3.485l-1.257,3.436c-0.783,2.288-1.67,4.528-2.469,6.766
		c-3.352,8.912-6.717,17.521-10.55,25.946c-3.762,8.454-7.917,16.72-12.357,25.121c-4.449,8.448-9.188,16.831-14.393,26.13
		c2.636-0.666,5.109-1.725,7.492-2.906c2.392-1.181,4.665-2.549,6.888-4.005c4.41-2.949,8.441-6.41,12.177-10.177
		c7.41-7.583,13.436-16.559,17.758-26.293c2.195-4.852,3.941-9.907,5.239-15.063c1.354-5.141,2.135-10.419,2.533-15.691
		c0.601-10.566-0.39-21.214-4.396-31.182C912.963,771.036,912.134,773.477,911.239,775.88z"/>
	<path d="M822.159,724.721c-2.209-0.191-4.317-0.399-6.339-0.754c-4.046-0.643-7.687-1.671-11.164-2.997
		c-6.914-2.66-13.565-6.579-21.311-10.551c-7.676-3.94-16.447-7.804-25.985-9.399c-9.499-1.582-19.547-0.921-28.226,3.28
		c4.424,2.027,8.516,3.672,12.399,5.499c3.886,1.776,7.543,3.635,11.122,5.57c7.156,3.851,14.023,8.082,21.904,12.174
		c3.941,2.027,8.156,3.979,12.759,5.529c4.589,1.542,9.604,2.674,14.768,2.835c5.159,0.184,10.384-0.723,15.016-2.566
		c4.636-1.887,8.735-4.586,11.996-8.176c-1.236-0.127-2.406-0.168-3.556-0.221C824.398,724.911,823.251,724.764,822.159,724.721z"/>
	<path d="M729.035,306.461c9.765-13.194,16.493-27.812,22.822-41.665c6.35-13.873,12.262-27.238,20.883-38.068
		c4.275-5.462,9.439-10.098,15.564-13.928c3.056-1.928,6.36-3.602,9.841-5.131c0.877-0.359,1.766-0.697,2.655-1.079
		c0.894-0.359,1.782-0.796,2.71-1.062c1.839-0.626,3.707-1.252,5.607-1.984c-7.843-1.619-16.199-1.51-24.424,0.564
		c-8.216,2.06-16.133,6.331-22.672,11.983c-6.585,5.637-11.903,12.405-16.336,19.362c-4.442,6.979-8.056,14.191-11.334,21.344
		c-6.535,14.331-11.762,28.456-18.233,41.736c-3.206,6.662-6.778,13.081-10.941,19.267c-2.063,3.115-4.344,6.097-6.742,9.092
		c-1.26,1.42-2.461,2.965-3.771,4.409c-1.33,1.417-2.686,2.848-4.018,4.387c7.722-2.23,14.951-6.318,21.417-11.401
		C718.533,319.184,724.141,313.009,729.035,306.461z"/>
	<path fill="#C69C6D" d="M410.568,405.42c0-3.699-0.618-7.252-1.741-10.572c-0.544-0.588-1.094-1.166-1.654-1.729
		c-2.313-2.341-4.766-4.441-7.329-6.242c-2.551-1.822-5.235-3.318-8.039-4.433c-5.598-2.22-11.699-3.073-18.16-2.362
		c-3.224,0.314-6.513,0.973-9.81,1.903c-3.302,0.913-6.632,2.053-9.934,3.411c-1.224,0.497-2.444,1.038-3.664,1.578
		c-3.559,5.265-5.637,11.613-5.637,18.447c0,5.825,1.516,11.293,4.165,16.043c2.403,1.224,4.795,2.397,7.199,3.452
		c5.205,2.339,10.45,4.164,15.713,5.324c9.289,2.045,18.688,1.748,27.957-0.292C406.345,423.909,410.568,415.159,410.568,405.42z"/>
	<path fill="#C69C6D" d="M849.753,386.973c-1.22-0.54-2.441-1.081-3.664-1.578c-3.302-1.359-6.632-2.498-9.934-3.411
		c-3.297-0.929-6.586-1.589-9.81-1.903c-6.461-0.711-12.562,0.142-18.16,2.362c-2.804,1.115-5.488,2.611-8.039,4.433
		c-2.563,1.802-5.016,3.901-7.329,6.242c-0.56,0.563-1.11,1.14-1.654,1.729c-1.123,3.32-1.741,6.873-1.741,10.572
		c0,9.739,4.223,18.489,10.934,24.527c9.269,2.04,18.668,2.337,27.957,0.292c5.262-1.161,10.507-2.985,15.713-5.324
		c2.404-1.055,4.796-2.228,7.199-3.452c2.65-4.75,4.165-10.218,4.165-16.043C855.389,398.587,853.311,392.239,849.753,386.973z"/>
	<path d="M886.459,410.02c1.668-0.642,3.407-1.041,5.194-1.337c1.558,0.732,3.129,1.44,4.728,2.097
		c3.593,1.438,7.278,2.755,11.068,3.399c-1.695-0.901-3.314-1.881-4.897-2.899c-1.572-1.046-3.094-2.15-4.596-3.282
		c-3.007-2.252-5.919-4.636-8.821-7.046c-5.811-4.811-11.575-9.781-17.668-14.504c-6.08-4.738-12.464-9.282-19.459-13.232
		c-6.99-3.929-14.674-7.258-23.207-8.972c-8.478-1.715-17.957-1.429-26.619,1.508c-4.327,1.437-8.423,3.438-12.177,5.805
		c-3.749,2.387-7.139,5.152-10.256,8.083c-3.11,2.94-5.991,6.039-8.529,9.317c-2.586,3.252-4.949,6.608-7.128,10.028
		c-4.389,6.833-8.008,13.963-11.307,21.135l-3.831,8.328l7.841,3.986c2.824,1.436,5.615,2.904,8.486,4.263l4.366,1.953l2.184,0.971
		l2.252,0.869l4.517,1.691c1.536,0.509,3.098,0.97,4.644,1.453l2.324,0.714l2.385,0.589c1.597,0.373,3.168,0.803,4.783,1.119
		c6.465,1.226,13.156,1.837,19.855,1.509c6.692-0.346,13.382-1.591,19.625-3.817c6.27-2.161,12.058-5.218,17.379-8.615
		c5.319-3.425,10.188-7.197,14.872-10.936c4.719-3.689,9.258-7.435,14.209-10.393C881.133,412.262,883.727,411.04,886.459,410.02z
		 M867.997,412.878c-2.805,1.308-5.54,2.704-8.206,4.119c-2.899,1.515-5.741,3.027-8.567,4.466
		c-2.403,1.224-4.795,2.397-7.199,3.452c-5.205,2.339-10.45,4.164-15.713,5.324c-9.289,2.045-18.688,1.748-27.957-0.292
		c-1.242-0.274-2.482-0.573-3.718-0.907c-1.309-0.342-2.612-0.783-3.917-1.164l-1.955-0.595l-1.938-0.724l-3.87-1.45l-3.828-1.67
		l-1.921-0.812l-1.895-0.925l-3.238-1.58c1.973-3.715,4.047-7.34,6.224-10.839c0.905-1.518,1.913-2.924,2.868-4.387
		c1.019-1.389,1.986-2.843,3.059-4.161c1.586-2.06,3.225-4.031,4.936-5.882c0.544-0.588,1.094-1.166,1.654-1.729
		c2.313-2.341,4.766-4.441,7.329-6.242c2.551-1.822,5.235-3.318,8.039-4.433c5.598-2.22,11.699-3.073,18.16-2.362
		c3.224,0.314,6.513,0.973,9.81,1.903c3.302,0.913,6.632,2.053,9.934,3.411c1.224,0.497,2.444,1.038,3.664,1.578
		c5.387,2.382,10.749,5.13,16.123,8.02c6.587,3.56,13.199,7.325,20.026,10.86c1.043,0.532,2.092,1.057,3.145,1.576
		c-1.033-0.032-2.07-0.029-3.109,0.06c-3.119,0.261-6.267,0.9-9.238,1.906C873.688,410.346,870.802,411.565,867.997,412.878z"/>
</g>
</svg>
