<svg id="Layer_3" enable-background="new 0 0 512 512" height="512" viewBox="0 0 512 512" width="512" xmlns="http://www.w3.org/2000/svg"><path d="m40 80v384h32v-384" fill="#91989d"/><path d="m16 48h480v32h-480z" fill="#593c35"/><path d="m440 80v384h32v-384" fill="#91989d"/><path d="m72 120h368v16h-368z" fill="#91989d"/><path d="m56 80v352c0 8.837 7.163 16 16 16v-368z" fill="#69737a"/><path d="m440 80v368c8.837 0 16-7.163 16-16v-352z" fill="#69737a"/><path d="m64 64h432v-16h-448c0 8.837 7.163 16 16 16z" fill="#7f5650"/><path d="m254.1 193.8 17.9-33.8 14.4 19.2c6.043 8.058 15.528 12.8 25.6 12.8s19.557-4.742 25.6-12.8l14.4-19.2 56 112-32 16-32-56 16 152h-96l16-152z" fill="#f9d161"/><path d="m337.6 179.2c-10.461 14.069-30.347 16.993-44.415 6.532-1.904-1.416-3.643-3.04-5.185-4.844v147.112c0 22.091 17.909 40 40 40h30.312l-14.312-136 32 56 32-16-56-112z" fill="#fbe47f"/><g fill="#e7b541"><path d="m264 384h96l-3.368-32h-89.264z"/><path d="m408 272.008-14.16-28.312-32.144 19.288 14.296 25.016z"/></g><path d="m296.184 352c7.494 10.046 19.283 15.975 31.816 16h30.312l-1.68-16z" fill="#f5b94c"/><path d="m152 384 16-152-32 56-32-16 56-112 14.4 19.2c6.043 8.058 15.528 12.8 25.6 12.8s19.557-4.742 25.6-12.8l14.4-19.2 56 112-32 16-32-56 16 152z" fill="#49aad0"/><path d="m225.6 179.2c-10.461 14.069-30.347 16.993-44.415 6.532-1.904-1.416-3.643-3.04-5.185-4.844v147.112c0 22.091 17.909 40 40 40h30.312l-14.312-136 32 56 32-16-56-112z" fill="#62c0db"/><g fill="#337da1"><path d="m152 384h96l-3.368-32h-89.264z"/><path d="m104 272.008 32.008 15.992 14.296-25.016-32.152-19.288z"/><path d="m296 272.008-14.16-28.312-32.144 19.288 14.296 25.016z"/></g><path d="m184.184 352c7.494 10.046 19.283 15.975 31.816 16h30.312l-1.68-16z" fill="#3e92c0"/><path d="m496 40h-480c-4.418 0-8 3.582-8 8v32c0 4.418 3.582 8 8 8h16v376c0 4.418 3.582 8 8 8h32c4.418 0 8-3.582 8-8v-328h112v16h-32c-.24 0-.472 0-.72 0-2.748.262-5.167 1.922-6.4 4.392l-56 112c-1.976 3.952-.374 8.757 3.578 10.733l.006.003 32 16c3.8 1.894 8.418.489 10.52-3.2l13.112-22.944-12.048 114.216c-.442 4.396 2.764 8.318 7.16 8.76.263.026.528.04.792.04h96c4.418-.004 7.996-3.59 7.992-8.008 0-.265-.014-.529-.04-.792l-12-114.144 13.096 22.944c1.663 2.866 4.936 4.392 8.2 3.824l-9.2 87.376c-.442 4.396 2.764 8.318 7.16 8.76.263.026.528.04.792.04h96c4.418-.004 7.996-3.59 7.992-8.008 0-.265-.014-.529-.04-.792l-12-114.144 13.096 22.944c2.102 3.689 6.72 5.094 10.52 3.2l32-16c3.954-1.973 5.559-6.776 3.587-10.73-.001-.002-.002-.004-.003-.006l-56-112c-1.233-2.47-3.652-4.13-6.4-4.392-.248 0-.48 0-.72 0h-32.032v-16.072h112v328c0 4.418 3.582 8 8 8h32c4.418 0 8-3.582 8-8v-376h16c4.418 0 8-3.582 8-8v-32c0-4.418-3.582-8-8-8zm-448 416v-368h16v368zm176-288-4.8 6.4c-7.953 10.604-22.996 12.753-33.6 4.8-1.819-1.365-3.436-2.981-4.8-4.8l-4.8-6.4zm-91.2 109.464-18.08-9.032 6.712-13.432 18.024 10.816zm28.08 98.536 1.688-16h74.864l1.688 16zm78.056-148c-2.2-3.832-7.09-5.154-10.921-2.954-2.74 1.573-4.297 4.612-3.975 7.754l11.704 111.2h-71.488l11.744-111.2c.451-4.395-2.746-8.324-7.142-8.775-3.143-.323-6.181 1.235-7.754 3.975l-13.696 23.92-18.784-11.272 32.744-65.448 6.632 8.8c13.255 17.673 38.327 21.255 56 8 3.032-2.274 5.726-4.968 8-8l6.632-8.8 32.744 65.48-18.784 11.24zm21.6 37.792 18.024-10.816 6.712 13.432-18.072 9.056zm12.352 110.208 1.688-16h74.856l1.688 16zm106.312-98.536-6.656-11.648 18.024-10.816 6.712 13.432zm4.192-36.8-18.8 11.256-13.656-23.92c-2.2-3.832-7.09-5.154-10.921-2.954-2.74 1.573-4.297 4.612-3.975 7.754l11.704 111.2h-71.488l5.912-56.136 17.408-8.664c3.954-1.973 5.559-6.776 3.587-10.73-.001-.002-.002-.004-.003-.006l-38.216-76.464 8.424-16.8 6.632 8.8c13.255 17.673 38.327 21.255 56 8 3.032-2.274 5.726-4.968 8-8l6.632-8.8zm-95.392-72.664h48l-4.8 6.4c-7.953 10.604-22.996 12.753-33.6 4.8-1.819-1.365-3.435-2.981-4.8-4.8zm16-16h-32c-.24 0-.472 0-.72 0-2.748.262-5.167 1.922-6.4 4.392l-8.88 17.728-8.8-17.688c-1.233-2.47-3.652-4.13-6.4-4.392-.248 0-.48 0-.72 0h-32.08v-16.04h96zm-224-32v-32h352v32zm384 336h-16v-368h16zm24-384h-464v-16h464z"/></svg>